<svg viewBox="138 10 48 48" fill="none" xmlns="http://www.w3.org/2000/svg">
<path d="M138 34C138 20.7452 148.745 10 162 10C175.255 10 186 20.7452 186 34C186 47.2548 175.255 58 162 58C148.745 58 138 47.2548 138 34Z" fill="#F0F4F5"/>
<path d="M159.937 37.5002C159.848 37.1542 159.667 36.8384 159.415 36.5856C159.162 36.3329 158.846 36.1525 158.5 36.0632L152.365 34.4812C152.26 34.4515 152.168 34.3885 152.103 34.3017C152.037 34.2149 152.001 34.1091 152.001 34.0002C152.001 33.8914 152.037 33.7856 152.103 33.6988C152.168 33.612 152.26 33.549 152.365 33.5192L158.5 31.9362C158.846 31.8471 159.162 31.6668 159.414 31.4143C159.667 31.1618 159.848 30.8461 159.937 30.5002L161.519 24.3652C161.548 24.2602 161.611 24.1676 161.698 24.1016C161.785 24.0357 161.891 24 162 24C162.11 24 162.216 24.0357 162.303 24.1016C162.39 24.1676 162.453 24.2602 162.482 24.3652L164.063 30.5002C164.152 30.8463 164.333 31.1621 164.585 31.4149C164.838 31.6676 165.154 31.848 165.5 31.9372L171.635 33.5182C171.74 33.5473 171.833 33.6103 171.9 33.6973C171.966 33.7844 172.002 33.8908 172.002 34.0002C172.002 34.1097 171.966 34.2161 171.9 34.3032C171.833 34.3902 171.74 34.4531 171.635 34.4822L165.5 36.0632C165.154 36.1525 164.838 36.3329 164.585 36.5856C164.333 36.8384 164.152 37.1542 164.063 37.5002L162.481 43.6353C162.452 43.7403 162.389 43.8329 162.302 43.8989C162.215 43.9648 162.109 44.0005 161.999 44.0005C161.89 44.0005 161.784 43.9648 161.697 43.8989C161.61 43.8329 161.547 43.7403 161.518 43.6353L159.937 37.5002Z" stroke="#FFA500" stroke-width="2" stroke-linecap="round" stroke-linejoin="round"/>
<path d="M170 25V29" stroke="#FFA500" stroke-width="2" stroke-linecap="round" stroke-linejoin="round"/>
<path d="M172 27H168" stroke="#FFA500" stroke-width="2" stroke-linecap="round" stroke-linejoin="round"/>
<path d="M154 39V41" stroke="#FFA500" stroke-width="2" stroke-linecap="round" stroke-linejoin="round"/>
<path d="M155 40H153" stroke="#FFA500" stroke-width="2" stroke-linecap="round" stroke-linejoin="round"/>
</svg>
