<svg width="328" height="734" viewBox="0 0 328 734" fill="none" xmlns="http://www.w3.org/2000/svg">
<rect x="0.5" y="0.5" width="326.328" height="732.953" rx="4.5" fill="white"/>
<rect x="0.5" y="0.5" width="326.328" height="732.953" rx="4.5" stroke="#8A38F5" stroke-dasharray="10 5"/>
<g filter="url(#filter0_d_58_149)">
<mask id="path-2-inside-1_58_149" fill="white">
<path d="M20 28C20 23.5817 23.5817 20 28 20H299.328C303.746 20 307.328 23.5817 307.328 28V348.977C307.328 353.395 303.746 356.977 299.328 356.977H28C23.5817 356.977 20 353.395 20 348.977V28Z"/>
</mask>
<path d="M20 28C20 23.5817 23.5817 20 28 20H299.328C303.746 20 307.328 23.5817 307.328 28V348.977C307.328 353.395 303.746 356.977 299.328 356.977H28C23.5817 356.977 20 353.395 20 348.977V28Z" fill="white" shape-rendering="crispEdges"/>
<path d="M28 20V21H299.328V20V19H28V20ZM307.328 28H306.328V348.977H307.328H308.328V28H307.328ZM299.328 356.977V355.977H28V356.977V357.977H299.328V356.977ZM20 348.977H21V28H20H19V348.977H20ZM28 356.977V355.977C24.134 355.977 21 352.843 21 348.977H20H19C19 353.947 23.0294 357.977 28 357.977V356.977ZM307.328 348.977H306.328C306.328 352.843 303.194 355.977 299.328 355.977V356.977V357.977C304.299 357.977 308.328 353.947 308.328 348.977H307.328ZM299.328 20V21C303.194 21 306.328 24.134 306.328 28H307.328H308.328C308.328 23.0294 304.299 19 299.328 19V20ZM28 20V19C23.0294 19 19 23.0294 19 28H20H21C21 24.134 24.134 21 28 21V20Z" fill="#D5DBDE" mask="url(#path-2-inside-1_58_149)"/>
<path d="M68 92C68 78.7452 78.7452 68 92 68C105.255 68 116 78.7452 116 92C116 105.255 105.255 116 92 116C78.7452 116 68 105.255 68 92Z" fill="#F0F4F5"/>
<path d="M93.5 87C93.7761 87 94 86.7761 94 86.5C94 86.2239 93.7761 86 93.5 86C93.2239 86 93 86.2239 93 86.5C93 86.7761 93.2239 87 93.5 87Z" fill="#FFA500" stroke="#FFA500" stroke-width="2" stroke-linecap="round" stroke-linejoin="round"/>
<path d="M97.5 91C97.7761 91 98 90.7761 98 90.5C98 90.2239 97.7761 90 97.5 90C97.2239 90 97 90.2239 97 90.5C97 90.7761 97.2239 91 97.5 91Z" fill="#FFA500" stroke="#FFA500" stroke-width="2" stroke-linecap="round" stroke-linejoin="round"/>
<path d="M88.5 88C88.7761 88 89 87.7761 89 87.5C89 87.2239 88.7761 87 88.5 87C88.2239 87 88 87.2239 88 87.5C88 87.7761 88.2239 88 88.5 88Z" fill="#FFA500" stroke="#FFA500" stroke-width="2" stroke-linecap="round" stroke-linejoin="round"/>
<path d="M86.5 93C86.7761 93 87 92.7761 87 92.5C87 92.2239 86.7761 92 86.5 92C86.2239 92 86 92.2239 86 92.5C86 92.7761 86.2239 93 86.5 93Z" fill="#FFA500" stroke="#FFA500" stroke-width="2" stroke-linecap="round" stroke-linejoin="round"/>
<path d="M92 82C86.5 82 82 86.5 82 92C82 97.5 86.5 102 92 102C92.926 102 93.648 101.254 93.648 100.312C93.648 99.875 93.468 99.477 93.211 99.187C92.921 98.898 92.773 98.535 92.773 98.062C92.7692 97.8419 92.8098 97.6233 92.8922 97.4192C92.9747 97.2151 93.0975 97.0298 93.2531 96.8741C93.4088 96.7185 93.5941 96.5957 93.7982 96.5132C94.0023 96.4308 94.2209 96.3902 94.441 96.394H96.437C99.488 96.394 101.992 93.891 101.992 90.84C101.965 86.012 97.461 82 92 82Z" stroke="#FFA500" stroke-width="2" stroke-linecap="round" stroke-linejoin="round"/>
<path d="M76.764 141.456C78.8173 141.456 80.6187 141.857 82.168 142.66C83.736 143.463 84.94 144.611 85.78 146.104C86.6387 147.579 87.068 149.296 87.068 151.256C87.068 153.216 86.6387 154.933 85.78 156.408C84.94 157.864 83.736 158.993 82.168 159.796C80.6187 160.599 78.8173 161 76.764 161H69.932V141.456H76.764ZM76.624 157.668C78.6773 157.668 80.264 157.108 81.384 155.988C82.504 154.868 83.064 153.291 83.064 151.256C83.064 149.221 82.504 147.635 81.384 146.496C80.264 145.339 78.6773 144.76 76.624 144.76H73.852V157.668H76.624ZM104.422 152.908C104.422 153.468 104.385 153.972 104.31 154.42H92.9703C93.0636 155.54 93.4556 156.417 94.1463 157.052C94.837 157.687 95.6863 158.004 96.6943 158.004C98.1503 158.004 99.1863 157.379 99.8023 156.128H104.03C103.582 157.621 102.724 158.853 101.454 159.824C100.185 160.776 98.6263 161.252 96.7783 161.252C95.285 161.252 93.941 160.925 92.7463 160.272C91.5703 159.6 90.6463 158.657 89.9743 157.444C89.321 156.231 88.9943 154.831 88.9943 153.244C88.9943 151.639 89.321 150.229 89.9743 149.016C90.6276 147.803 91.5423 146.869 92.7183 146.216C93.8943 145.563 95.2476 145.236 96.7783 145.236C98.253 145.236 99.569 145.553 100.726 146.188C101.902 146.823 102.808 147.728 103.442 148.904C104.096 150.061 104.422 151.396 104.422 152.908ZM100.362 151.788C100.344 150.78 99.9796 149.977 99.2703 149.38C98.561 148.764 97.693 148.456 96.6663 148.456C95.6956 148.456 94.8743 148.755 94.2023 149.352C93.549 149.931 93.1476 150.743 92.9983 151.788H100.362ZM113.22 161.252C111.95 161.252 110.812 161.028 109.804 160.58C108.796 160.113 107.993 159.488 107.396 158.704C106.817 157.92 106.5 157.052 106.444 156.1H110.392C110.466 156.697 110.756 157.192 111.26 157.584C111.782 157.976 112.426 158.172 113.192 158.172C113.938 158.172 114.517 158.023 114.928 157.724C115.357 157.425 115.572 157.043 115.572 156.576C115.572 156.072 115.31 155.699 114.788 155.456C114.284 155.195 113.472 154.915 112.352 154.616C111.194 154.336 110.242 154.047 109.496 153.748C108.768 153.449 108.133 152.992 107.592 152.376C107.069 151.76 106.808 150.929 106.808 149.884C106.808 149.025 107.05 148.241 107.536 147.532C108.04 146.823 108.749 146.263 109.664 145.852C110.597 145.441 111.689 145.236 112.94 145.236C114.788 145.236 116.262 145.703 117.364 146.636C118.465 147.551 119.072 148.792 119.184 150.36H115.432C115.376 149.744 115.114 149.259 114.648 148.904C114.2 148.531 113.593 148.344 112.828 148.344C112.118 148.344 111.568 148.475 111.176 148.736C110.802 148.997 110.616 149.361 110.616 149.828C110.616 150.351 110.877 150.752 111.4 151.032C111.922 151.293 112.734 151.564 113.836 151.844C114.956 152.124 115.88 152.413 116.608 152.712C117.336 153.011 117.961 153.477 118.484 154.112C119.025 154.728 119.305 155.549 119.324 156.576C119.324 157.472 119.072 158.275 118.568 158.984C118.082 159.693 117.373 160.253 116.44 160.664C115.525 161.056 114.452 161.252 113.22 161.252ZM124.529 143.64C123.839 143.64 123.26 143.425 122.793 142.996C122.345 142.548 122.121 141.997 122.121 141.344C122.121 140.691 122.345 140.149 122.793 139.72C123.26 139.272 123.839 139.048 124.529 139.048C125.22 139.048 125.789 139.272 126.237 139.72C126.704 140.149 126.937 140.691 126.937 141.344C126.937 141.997 126.704 142.548 126.237 142.996C125.789 143.425 125.22 143.64 124.529 143.64ZM126.461 145.488V161H122.541V145.488H126.461ZM136.41 145.236C137.568 145.236 138.585 145.469 139.462 145.936C140.34 146.384 141.03 146.972 141.534 147.7V145.488H145.482V161.112C145.482 162.549 145.193 163.828 144.614 164.948C144.036 166.087 143.168 166.983 142.01 167.636C140.853 168.308 139.453 168.644 137.81 168.644C135.608 168.644 133.797 168.131 132.378 167.104C130.978 166.077 130.185 164.677 129.998 162.904H133.89C134.096 163.613 134.534 164.173 135.206 164.584C135.897 165.013 136.728 165.228 137.698 165.228C138.837 165.228 139.761 164.883 140.47 164.192C141.18 163.52 141.534 162.493 141.534 161.112V158.704C141.03 159.432 140.33 160.039 139.434 160.524C138.557 161.009 137.549 161.252 136.41 161.252C135.104 161.252 133.909 160.916 132.826 160.244C131.744 159.572 130.885 158.629 130.25 157.416C129.634 156.184 129.326 154.775 129.326 153.188C129.326 151.62 129.634 150.229 130.25 149.016C130.885 147.803 131.734 146.869 132.798 146.216C133.881 145.563 135.085 145.236 136.41 145.236ZM141.534 153.244C141.534 152.292 141.348 151.48 140.974 150.808C140.601 150.117 140.097 149.595 139.462 149.24C138.828 148.867 138.146 148.68 137.418 148.68C136.69 148.68 136.018 148.857 135.402 149.212C134.786 149.567 134.282 150.089 133.89 150.78C133.517 151.452 133.33 152.255 133.33 153.188C133.33 154.121 133.517 154.943 133.89 155.652C134.282 156.343 134.786 156.875 135.402 157.248C136.037 157.621 136.709 157.808 137.418 157.808C138.146 157.808 138.828 157.631 139.462 157.276C140.097 156.903 140.601 156.38 140.974 155.708C141.348 155.017 141.534 154.196 141.534 153.244ZM157.907 145.264C159.755 145.264 161.248 145.852 162.387 147.028C163.526 148.185 164.095 149.809 164.095 151.9V161H160.175V152.432C160.175 151.2 159.867 150.257 159.251 149.604C158.635 148.932 157.795 148.596 156.731 148.596C155.648 148.596 154.79 148.932 154.155 149.604C153.539 150.257 153.231 151.2 153.231 152.432V161H149.311V145.488H153.231V147.42C153.754 146.748 154.416 146.225 155.219 145.852C156.04 145.46 156.936 145.264 157.907 145.264ZM178.415 157.892H184.855V161H174.495V141.456H178.415V157.892ZM186.338 153.188C186.338 151.62 186.646 150.229 187.262 149.016C187.897 147.803 188.746 146.869 189.81 146.216C190.893 145.563 192.097 145.236 193.422 145.236C194.579 145.236 195.587 145.469 196.446 145.936C197.323 146.403 198.023 146.991 198.546 147.7V145.488H202.494V161H198.546V158.732C198.042 159.46 197.342 160.067 196.446 160.552C195.569 161.019 194.551 161.252 193.394 161.252C192.087 161.252 190.893 160.916 189.81 160.244C188.746 159.572 187.897 158.629 187.262 157.416C186.646 156.184 186.338 154.775 186.338 153.188ZM198.546 153.244C198.546 152.292 198.359 151.48 197.986 150.808C197.613 150.117 197.109 149.595 196.474 149.24C195.839 148.867 195.158 148.68 194.43 148.68C193.702 148.68 193.03 148.857 192.414 149.212C191.798 149.567 191.294 150.089 190.902 150.78C190.529 151.452 190.342 152.255 190.342 153.188C190.342 154.121 190.529 154.943 190.902 155.652C191.294 156.343 191.798 156.875 192.414 157.248C193.049 157.621 193.721 157.808 194.43 157.808C195.158 157.808 195.839 157.631 196.474 157.276C197.109 156.903 197.613 156.38 197.986 155.708C198.359 155.017 198.546 154.196 198.546 153.244ZM221.163 145.488L211.559 168.336H207.387L210.747 160.608L204.531 145.488H208.927L212.931 156.324L216.991 145.488H221.163ZM237.696 152.908C237.696 153.468 237.658 153.972 237.584 154.42H226.244C226.337 155.54 226.729 156.417 227.42 157.052C228.11 157.687 228.96 158.004 229.968 158.004C231.424 158.004 232.46 157.379 233.076 156.128H237.304C236.856 157.621 235.997 158.853 234.728 159.824C233.458 160.776 231.9 161.252 230.052 161.252C228.558 161.252 227.214 160.925 226.02 160.272C224.844 159.6 223.92 158.657 223.248 157.444C222.594 156.231 222.268 154.831 222.268 153.244C222.268 151.639 222.594 150.229 223.248 149.016C223.901 147.803 224.816 146.869 225.992 146.216C227.168 145.563 228.521 145.236 230.052 145.236C231.526 145.236 232.842 145.553 234 146.188C235.176 146.823 236.081 147.728 236.716 148.904C237.369 150.061 237.696 151.396 237.696 152.908ZM233.636 151.788C233.617 150.78 233.253 149.977 232.544 149.38C231.834 148.764 230.966 148.456 229.94 148.456C228.969 148.456 228.148 148.755 227.476 149.352C226.822 149.931 226.421 150.743 226.272 151.788H233.636ZM244.477 147.896C244.981 147.075 245.634 146.431 246.437 145.964C247.258 145.497 248.192 145.264 249.237 145.264V149.38H248.201C246.969 149.38 246.036 149.669 245.401 150.248C244.785 150.827 244.477 151.835 244.477 153.272V161H240.557V145.488H244.477V147.896Z" fill="#2B2D2E"/>
<path d="M77.824 194.848V206H76.368V200.944H70.688V206H69.232V194.848H70.688V199.744H76.368V194.848H77.824ZM88.0861 197.232V206H86.6301V204.704C86.3528 205.152 85.9635 205.504 85.4621 205.76C84.9715 206.005 84.4275 206.128 83.8301 206.128C83.1475 206.128 82.5341 205.989 81.9901 205.712C81.4461 205.424 81.0141 204.997 80.6941 204.432C80.3848 203.867 80.2301 203.179 80.2301 202.368V197.232H81.6701V202.176C81.6701 203.04 81.8888 203.707 82.3261 204.176C82.7635 204.635 83.3608 204.864 84.1181 204.864C84.8968 204.864 85.5101 204.624 85.9581 204.144C86.4061 203.664 86.6301 202.965 86.6301 202.048V197.232H88.0861ZM101.089 197.072C101.771 197.072 102.379 197.216 102.913 197.504C103.446 197.781 103.867 198.203 104.177 198.768C104.486 199.333 104.641 200.021 104.641 200.832V206H103.201V201.04C103.201 200.165 102.982 199.499 102.545 199.04C102.118 198.571 101.537 198.336 100.801 198.336C100.043 198.336 99.4405 198.581 98.9925 199.072C98.5445 199.552 98.3205 200.251 98.3205 201.168V206H96.8805V201.04C96.8805 200.165 96.6618 199.499 96.2245 199.04C95.7978 198.571 95.2165 198.336 94.4805 198.336C93.7232 198.336 93.1205 198.581 92.6725 199.072C92.2245 199.552 92.0005 200.251 92.0005 201.168V206H90.5445V197.232H92.0005V198.496C92.2885 198.037 92.6725 197.685 93.1525 197.44C93.6432 197.195 94.1818 197.072 94.7685 197.072C95.5045 197.072 96.1552 197.237 96.7205 197.568C97.2858 197.899 97.7072 198.384 97.9845 199.024C98.2298 198.405 98.6352 197.925 99.2005 197.584C99.7658 197.243 100.395 197.072 101.089 197.072ZM106.485 201.584C106.485 200.688 106.666 199.904 107.029 199.232C107.392 198.549 107.888 198.021 108.517 197.648C109.157 197.275 109.866 197.088 110.645 197.088C111.413 197.088 112.08 197.253 112.645 197.584C113.21 197.915 113.632 198.331 113.909 198.832V197.232H115.381V206H113.909V204.368C113.621 204.88 113.189 205.307 112.613 205.648C112.048 205.979 111.386 206.144 110.629 206.144C109.85 206.144 109.146 205.952 108.517 205.568C107.888 205.184 107.392 204.645 107.029 203.952C106.666 203.259 106.485 202.469 106.485 201.584ZM113.909 201.6C113.909 200.939 113.776 200.363 113.509 199.872C113.242 199.381 112.88 199.008 112.421 198.752C111.973 198.485 111.477 198.352 110.933 198.352C110.389 198.352 109.893 198.48 109.445 198.736C108.997 198.992 108.64 199.365 108.373 199.856C108.106 200.347 107.973 200.923 107.973 201.584C107.973 202.256 108.106 202.843 108.373 203.344C108.64 203.835 108.997 204.213 109.445 204.48C109.893 204.736 110.389 204.864 110.933 204.864C111.477 204.864 111.973 204.736 112.421 204.48C112.88 204.213 113.242 203.835 113.509 203.344C113.776 202.843 113.909 202.261 113.909 201.6ZM122.113 197.072C123.18 197.072 124.044 197.397 124.705 198.048C125.367 198.688 125.697 199.616 125.697 200.832V206H124.257V201.04C124.257 200.165 124.039 199.499 123.601 199.04C123.164 198.571 122.567 198.336 121.809 198.336C121.041 198.336 120.428 198.576 119.969 199.056C119.521 199.536 119.297 200.235 119.297 201.152V206H117.841V197.232H119.297V198.48C119.585 198.032 119.975 197.685 120.465 197.44C120.967 197.195 121.516 197.072 122.113 197.072ZM134.156 199.52V200.752H127.772V199.52H134.156ZM136.344 201.6C136.344 200.693 136.526 199.904 136.888 199.232C137.251 198.549 137.752 198.021 138.392 197.648C139.043 197.275 139.784 197.088 140.616 197.088C141.694 197.088 142.579 197.349 143.272 197.872C143.976 198.395 144.44 199.12 144.664 200.048H143.096C142.947 199.515 142.654 199.093 142.216 198.784C141.79 198.475 141.256 198.32 140.616 198.32C139.784 198.32 139.112 198.608 138.6 199.184C138.088 199.749 137.832 200.555 137.832 201.6C137.832 202.656 138.088 203.472 138.6 204.048C139.112 204.624 139.784 204.912 140.616 204.912C141.256 204.912 141.79 204.763 142.216 204.464C142.643 204.165 142.936 203.739 143.096 203.184H144.664C144.43 204.08 143.96 204.8 143.256 205.344C142.552 205.877 141.672 206.144 140.616 206.144C139.784 206.144 139.043 205.957 138.392 205.584C137.752 205.211 137.251 204.683 136.888 204C136.526 203.317 136.344 202.517 136.344 201.6ZM154.607 201.28C154.607 201.557 154.591 201.851 154.559 202.16H147.551C147.604 203.024 147.898 203.701 148.431 204.192C148.975 204.672 149.631 204.912 150.399 204.912C151.028 204.912 151.551 204.768 151.967 204.48C152.394 204.181 152.692 203.787 152.863 203.296H154.431C154.196 204.139 153.727 204.827 153.023 205.36C152.319 205.883 151.444 206.144 150.399 206.144C149.567 206.144 148.82 205.957 148.159 205.584C147.508 205.211 146.996 204.683 146.623 204C146.25 203.307 146.063 202.507 146.063 201.6C146.063 200.693 146.244 199.899 146.607 199.216C146.97 198.533 147.476 198.011 148.127 197.648C148.788 197.275 149.546 197.088 150.399 197.088C151.231 197.088 151.967 197.269 152.607 197.632C153.247 197.995 153.738 198.496 154.079 199.136C154.431 199.765 154.607 200.48 154.607 201.28ZM153.103 200.976C153.103 200.421 152.98 199.947 152.735 199.552C152.49 199.147 152.154 198.843 151.727 198.64C151.311 198.427 150.847 198.32 150.335 198.32C149.599 198.32 148.97 198.555 148.447 199.024C147.935 199.493 147.642 200.144 147.567 200.976H153.103ZM160.801 197.072C161.868 197.072 162.732 197.397 163.393 198.048C164.054 198.688 164.385 199.616 164.385 200.832V206H162.945V201.04C162.945 200.165 162.726 199.499 162.289 199.04C161.852 198.571 161.254 198.336 160.497 198.336C159.729 198.336 159.116 198.576 158.657 199.056C158.209 199.536 157.985 200.235 157.985 201.152V206H156.529V197.232H157.985V198.48C158.273 198.032 158.662 197.685 159.153 197.44C159.654 197.195 160.204 197.072 160.801 197.072ZM168.539 198.432V203.6C168.539 204.027 168.63 204.331 168.811 204.512C168.993 204.683 169.307 204.768 169.755 204.768H170.827V206H169.515C168.705 206 168.097 205.813 167.691 205.44C167.286 205.067 167.083 204.453 167.083 203.6V198.432H165.947V197.232H167.083V195.024H168.539V197.232H170.827V198.432H168.539ZM180.591 201.28C180.591 201.557 180.575 201.851 180.543 202.16H173.535C173.589 203.024 173.882 203.701 174.415 204.192C174.959 204.672 175.615 204.912 176.383 204.912C177.013 204.912 177.535 204.768 177.951 204.48C178.378 204.181 178.677 203.787 178.847 203.296H180.415C180.181 204.139 179.711 204.827 179.007 205.36C178.303 205.883 177.429 206.144 176.383 206.144C175.551 206.144 174.805 205.957 174.143 205.584C173.493 205.211 172.981 204.683 172.607 204C172.234 203.307 172.047 202.507 172.047 201.6C172.047 200.693 172.229 199.899 172.591 199.216C172.954 198.533 173.461 198.011 174.111 197.648C174.773 197.275 175.53 197.088 176.383 197.088C177.215 197.088 177.951 197.269 178.591 197.632C179.231 197.995 179.722 198.496 180.063 199.136C180.415 199.765 180.591 200.48 180.591 201.28ZM179.087 200.976C179.087 200.421 178.965 199.947 178.719 199.552C178.474 199.147 178.138 198.843 177.711 198.64C177.295 198.427 176.831 198.32 176.319 198.32C175.583 198.32 174.954 198.555 174.431 199.024C173.919 199.493 173.626 200.144 173.551 200.976H179.087ZM183.969 198.656C184.225 198.155 184.588 197.765 185.057 197.488C185.537 197.211 186.119 197.072 186.801 197.072V198.576H186.417C184.785 198.576 183.969 199.461 183.969 201.232V206H182.513V197.232H183.969V198.656ZM196.482 201.28C196.482 201.557 196.466 201.851 196.434 202.16H189.426C189.479 203.024 189.773 203.701 190.306 204.192C190.85 204.672 191.506 204.912 192.274 204.912C192.903 204.912 193.426 204.768 193.842 204.48C194.269 204.181 194.567 203.787 194.738 203.296H196.306C196.071 204.139 195.602 204.827 194.898 205.36C194.194 205.883 193.319 206.144 192.274 206.144C191.442 206.144 190.695 205.957 190.034 205.584C189.383 205.211 188.871 204.683 188.498 204C188.125 203.307 187.938 202.507 187.938 201.6C187.938 200.693 188.119 199.899 188.482 199.216C188.845 198.533 189.351 198.011 190.002 197.648C190.663 197.275 191.421 197.088 192.274 197.088C193.106 197.088 193.842 197.269 194.482 197.632C195.122 197.995 195.613 198.496 195.954 199.136C196.306 199.765 196.482 200.48 196.482 201.28ZM194.978 200.976C194.978 200.421 194.855 199.947 194.61 199.552C194.365 199.147 194.029 198.843 193.602 198.64C193.186 198.427 192.722 198.32 192.21 198.32C191.474 198.32 190.845 198.555 190.322 199.024C189.81 199.493 189.517 200.144 189.442 200.976H194.978ZM197.86 201.584C197.86 200.688 198.041 199.904 198.404 199.232C198.767 198.549 199.263 198.021 199.892 197.648C200.532 197.275 201.247 197.088 202.036 197.088C202.719 197.088 203.353 197.248 203.94 197.568C204.527 197.877 204.975 198.288 205.284 198.8V194.16H206.756V206H205.284V204.352C204.996 204.875 204.569 205.307 204.004 205.648C203.439 205.979 202.777 206.144 202.02 206.144C201.241 206.144 200.532 205.952 199.892 205.568C199.263 205.184 198.767 204.645 198.404 203.952C198.041 203.259 197.86 202.469 197.86 201.584ZM205.284 201.6C205.284 200.939 205.151 200.363 204.884 199.872C204.617 199.381 204.255 199.008 203.796 198.752C203.348 198.485 202.852 198.352 202.308 198.352C201.764 198.352 201.268 198.48 200.82 198.736C200.372 198.992 200.015 199.365 199.748 199.856C199.481 200.347 199.348 200.923 199.348 201.584C199.348 202.256 199.481 202.843 199.748 203.344C200.015 203.835 200.372 204.213 200.82 204.48C201.268 204.736 201.764 204.864 202.308 204.864C202.852 204.864 203.348 204.736 203.796 204.48C204.255 204.213 204.617 203.835 204.884 203.344C205.151 202.843 205.284 202.261 205.284 201.6ZM214.906 194.848V201.904C214.906 202.896 215.146 203.632 215.626 204.112C216.117 204.592 216.794 204.832 217.658 204.832C218.511 204.832 219.178 204.592 219.658 204.112C220.149 203.632 220.394 202.896 220.394 201.904V194.848H221.85V201.888C221.85 202.816 221.663 203.6 221.29 204.24C220.917 204.869 220.41 205.339 219.77 205.648C219.141 205.957 218.431 206.112 217.642 206.112C216.853 206.112 216.138 205.957 215.498 205.648C214.869 205.339 214.367 204.869 213.994 204.24C213.631 203.6 213.45 202.816 213.45 201.888V194.848H214.906ZM228.839 200.432L232.263 206H230.615L227.943 201.648L225.399 206H223.783L227.191 200.432L223.767 194.848H225.399L228.087 199.216L230.647 194.848H232.279L228.839 200.432ZM242.05 198.432H240.21V206H238.754V198.432H237.618V197.232H238.754V196.608C238.754 195.627 239.005 194.912 239.506 194.464C240.018 194.005 240.834 193.776 241.954 193.776V194.992C241.314 194.992 240.861 195.12 240.594 195.376C240.338 195.621 240.21 196.032 240.21 196.608V197.232H242.05V198.432ZM247.572 206.144C246.75 206.144 246.004 205.957 245.332 205.584C244.67 205.211 244.148 204.683 243.764 204C243.39 203.307 243.204 202.507 243.204 201.6C243.204 200.704 243.396 199.915 243.78 199.232C244.174 198.539 244.708 198.011 245.38 197.648C246.052 197.275 246.804 197.088 247.636 197.088C248.468 197.088 249.22 197.275 249.892 197.648C250.564 198.011 251.092 198.533 251.476 199.216C251.87 199.899 252.068 200.693 252.068 201.6C252.068 202.507 251.865 203.307 251.46 204C251.065 204.683 250.526 205.211 249.844 205.584C249.161 205.957 248.404 206.144 247.572 206.144ZM247.572 204.864C248.094 204.864 248.585 204.741 249.044 204.496C249.502 204.251 249.87 203.883 250.148 203.392C250.436 202.901 250.58 202.304 250.58 201.6C250.58 200.896 250.441 200.299 250.164 199.808C249.886 199.317 249.524 198.955 249.076 198.72C248.628 198.475 248.142 198.352 247.62 198.352C247.086 198.352 246.596 198.475 246.148 198.72C245.71 198.955 245.358 199.317 245.092 199.808C244.825 200.299 244.692 200.896 244.692 201.6C244.692 202.315 244.82 202.917 245.076 203.408C245.342 203.899 245.694 204.267 246.132 204.512C246.569 204.747 247.049 204.864 247.572 204.864ZM255.438 198.656C255.694 198.155 256.057 197.765 256.526 197.488C257.006 197.211 257.587 197.072 258.27 197.072V198.576H257.886C256.254 198.576 255.438 199.461 255.438 201.232V206H253.982V197.232H255.438V198.656ZM77.232 225.28C77.232 225.557 77.216 225.851 77.184 226.16H70.176C70.2293 227.024 70.5227 227.701 71.056 228.192C71.6 228.672 72.256 228.912 73.024 228.912C73.6533 228.912 74.176 228.768 74.592 228.48C75.0187 228.181 75.3173 227.787 75.488 227.296H77.056C76.8213 228.139 76.352 228.827 75.648 229.36C74.944 229.883 74.0693 230.144 73.024 230.144C72.192 230.144 71.4453 229.957 70.784 229.584C70.1333 229.211 69.6213 228.683 69.248 228C68.8747 227.307 68.688 226.507 68.688 225.6C68.688 224.693 68.8693 223.899 69.232 223.216C69.5947 222.533 70.1013 222.011 70.752 221.648C71.4133 221.275 72.1707 221.088 73.024 221.088C73.856 221.088 74.592 221.269 75.232 221.632C75.872 221.995 76.3627 222.496 76.704 223.136C77.056 223.765 77.232 224.48 77.232 225.28ZM75.728 224.976C75.728 224.421 75.6053 223.947 75.36 223.552C75.1147 223.147 74.7787 222.843 74.352 222.64C73.936 222.427 73.472 222.32 72.96 222.32C72.224 222.32 71.5947 222.555 71.072 223.024C70.56 223.493 70.2667 224.144 70.192 224.976H75.728ZM83.4259 221.072C84.4925 221.072 85.3565 221.397 86.0179 222.048C86.6792 222.688 87.0099 223.616 87.0099 224.832V230H85.5699V225.04C85.5699 224.165 85.3512 223.499 84.9139 223.04C84.4765 222.571 83.8792 222.336 83.1219 222.336C82.3539 222.336 81.7405 222.576 81.2819 223.056C80.8339 223.536 80.6099 224.235 80.6099 225.152V230H79.1539V221.232H80.6099V222.48C80.8979 222.032 81.2872 221.685 81.7779 221.44C82.2792 221.195 82.8285 221.072 83.4259 221.072ZM91.1643 222.432V227.6C91.1643 228.027 91.2549 228.331 91.4363 228.512C91.6176 228.683 91.9323 228.768 92.3802 228.768H93.4523V230H92.1403C91.3296 230 90.7216 229.813 90.3163 229.44C89.9109 229.067 89.7083 228.453 89.7083 227.6V222.432H88.5723V221.232H89.7083V219.024H91.1643V221.232H93.4523V222.432H91.1643ZM103.216 225.28C103.216 225.557 103.2 225.851 103.168 226.16H96.1604C96.2137 227.024 96.507 227.701 97.0404 228.192C97.5844 228.672 98.2404 228.912 99.0084 228.912C99.6377 228.912 100.16 228.768 100.576 228.48C101.003 228.181 101.302 227.787 101.472 227.296H103.04C102.806 228.139 102.336 228.827 101.632 229.36C100.928 229.883 100.054 230.144 99.0084 230.144C98.1764 230.144 97.4297 229.957 96.7684 229.584C96.1177 229.211 95.6057 228.683 95.2324 228C94.859 227.307 94.6724 226.507 94.6724 225.6C94.6724 224.693 94.8537 223.899 95.2164 223.216C95.579 222.533 96.0857 222.011 96.7364 221.648C97.3977 221.275 98.155 221.088 99.0084 221.088C99.8404 221.088 100.576 221.269 101.216 221.632C101.856 221.995 102.347 222.496 102.688 223.136C103.04 223.765 103.216 224.48 103.216 225.28ZM101.712 224.976C101.712 224.421 101.59 223.947 101.344 223.552C101.099 223.147 100.763 222.843 100.336 222.64C99.9204 222.427 99.4564 222.32 98.9444 222.32C98.2084 222.32 97.579 222.555 97.0564 223.024C96.5444 223.493 96.251 224.144 96.1764 224.976H101.712ZM106.594 222.656C106.85 222.155 107.213 221.765 107.682 221.488C108.162 221.211 108.744 221.072 109.426 221.072V222.576H109.042C107.41 222.576 106.594 223.461 106.594 225.232V230H105.138V221.232H106.594V222.656ZM112.563 222.848C112.851 222.347 113.278 221.931 113.843 221.6C114.419 221.259 115.086 221.088 115.843 221.088C116.622 221.088 117.326 221.275 117.955 221.648C118.595 222.021 119.096 222.549 119.459 223.232C119.822 223.904 120.003 224.688 120.003 225.584C120.003 226.469 119.822 227.259 119.459 227.952C119.096 228.645 118.595 229.184 117.955 229.568C117.326 229.952 116.622 230.144 115.843 230.144C115.096 230.144 114.435 229.979 113.859 229.648C113.294 229.307 112.862 228.885 112.563 228.384V234.16H111.107V221.232H112.563V222.848ZM118.515 225.584C118.515 224.923 118.382 224.347 118.115 223.856C117.848 223.365 117.486 222.992 117.027 222.736C116.579 222.48 116.083 222.352 115.539 222.352C115.006 222.352 114.51 222.485 114.051 222.752C113.603 223.008 113.24 223.387 112.963 223.888C112.696 224.379 112.563 224.949 112.563 225.6C112.563 226.261 112.696 226.843 112.963 227.344C113.24 227.835 113.603 228.213 114.051 228.48C114.51 228.736 115.006 228.864 115.539 228.864C116.083 228.864 116.579 228.736 117.027 228.48C117.486 228.213 117.848 227.835 118.115 227.344C118.382 226.843 118.515 226.256 118.515 225.584ZM123.376 222.656C123.632 222.155 123.994 221.765 124.464 221.488C124.944 221.211 125.525 221.072 126.208 221.072V222.576H125.824C124.192 222.576 123.376 223.461 123.376 225.232V230H121.92V221.232H123.376V222.656ZM128.64 219.808C128.363 219.808 128.128 219.712 127.936 219.52C127.744 219.328 127.648 219.093 127.648 218.816C127.648 218.539 127.744 218.304 127.936 218.112C128.128 217.92 128.363 217.824 128.64 217.824C128.907 217.824 129.131 217.92 129.312 218.112C129.504 218.304 129.6 218.539 129.6 218.816C129.6 219.093 129.504 219.328 129.312 219.52C129.131 219.712 128.907 219.808 128.64 219.808ZM129.344 221.232V230H127.888V221.232H129.344ZM134.93 230.144C134.258 230.144 133.655 230.032 133.122 229.808C132.588 229.573 132.167 229.253 131.858 228.848C131.548 228.432 131.378 227.957 131.346 227.424H132.85C132.892 227.861 133.095 228.219 133.458 228.496C133.831 228.773 134.316 228.912 134.914 228.912C135.468 228.912 135.906 228.789 136.226 228.544C136.546 228.299 136.706 227.989 136.706 227.616C136.706 227.232 136.535 226.949 136.194 226.768C135.852 226.576 135.324 226.389 134.61 226.208C133.959 226.037 133.426 225.867 133.01 225.696C132.604 225.515 132.252 225.253 131.954 224.912C131.666 224.56 131.522 224.101 131.522 223.536C131.522 223.088 131.655 222.677 131.922 222.304C132.188 221.931 132.567 221.637 133.058 221.424C133.548 221.2 134.108 221.088 134.738 221.088C135.708 221.088 136.492 221.333 137.09 221.824C137.687 222.315 138.007 222.987 138.05 223.84H136.594C136.562 223.381 136.375 223.013 136.034 222.736C135.703 222.459 135.255 222.32 134.69 222.32C134.167 222.32 133.751 222.432 133.442 222.656C133.132 222.88 132.978 223.173 132.978 223.536C132.978 223.824 133.068 224.064 133.25 224.256C133.442 224.437 133.676 224.587 133.954 224.704C134.242 224.811 134.636 224.933 135.138 225.072C135.767 225.243 136.279 225.413 136.674 225.584C137.068 225.744 137.404 225.989 137.682 226.32C137.97 226.651 138.119 227.083 138.13 227.616C138.13 228.096 137.996 228.528 137.73 228.912C137.463 229.296 137.084 229.6 136.594 229.824C136.114 230.037 135.559 230.144 134.93 230.144ZM148.185 225.28C148.185 225.557 148.169 225.851 148.137 226.16H141.129C141.182 227.024 141.476 227.701 142.009 228.192C142.553 228.672 143.209 228.912 143.977 228.912C144.606 228.912 145.129 228.768 145.545 228.48C145.972 228.181 146.27 227.787 146.441 227.296H148.009C147.774 228.139 147.305 228.827 146.601 229.36C145.897 229.883 145.022 230.144 143.977 230.144C143.145 230.144 142.398 229.957 141.737 229.584C141.086 229.211 140.574 228.683 140.201 228C139.828 227.307 139.641 226.507 139.641 225.6C139.641 224.693 139.822 223.899 140.185 223.216C140.548 222.533 141.054 222.011 141.705 221.648C142.366 221.275 143.124 221.088 143.977 221.088C144.809 221.088 145.545 221.269 146.185 221.632C146.825 221.995 147.316 222.496 147.657 223.136C148.009 223.765 148.185 224.48 148.185 225.28ZM146.681 224.976C146.681 224.421 146.558 223.947 146.313 223.552C146.068 223.147 145.732 222.843 145.305 222.64C144.889 222.427 144.425 222.32 143.913 222.32C143.177 222.32 142.548 222.555 142.025 223.024C141.513 223.493 141.22 224.144 141.145 224.976H146.681ZM155.829 222.848C156.117 222.347 156.543 221.931 157.109 221.6C157.685 221.259 158.351 221.088 159.109 221.088C159.887 221.088 160.591 221.275 161.221 221.648C161.861 222.021 162.362 222.549 162.725 223.232C163.087 223.904 163.269 224.688 163.269 225.584C163.269 226.469 163.087 227.259 162.725 227.952C162.362 228.645 161.861 229.184 161.221 229.568C160.591 229.952 159.887 230.144 159.109 230.144C158.362 230.144 157.701 229.979 157.125 229.648C156.559 229.307 156.127 228.885 155.829 228.384V234.16H154.373V221.232H155.829V222.848ZM161.781 225.584C161.781 224.923 161.647 224.347 161.381 223.856C161.114 223.365 160.751 222.992 160.293 222.736C159.845 222.48 159.349 222.352 158.805 222.352C158.271 222.352 157.775 222.485 157.317 222.752C156.869 223.008 156.506 223.387 156.229 223.888C155.962 224.379 155.829 224.949 155.829 225.6C155.829 226.261 155.962 226.843 156.229 227.344C156.506 227.835 156.869 228.213 157.317 228.48C157.775 228.736 158.271 228.864 158.805 228.864C159.349 228.864 159.845 228.736 160.293 228.48C160.751 228.213 161.114 227.835 161.381 227.344C161.647 226.843 161.781 226.256 161.781 225.584ZM166.641 218.16V230H165.185V218.16H166.641ZM168.579 225.584C168.579 224.688 168.76 223.904 169.123 223.232C169.485 222.549 169.981 222.021 170.611 221.648C171.251 221.275 171.96 221.088 172.739 221.088C173.507 221.088 174.173 221.253 174.739 221.584C175.304 221.915 175.725 222.331 176.003 222.832V221.232H177.475V230H176.003V228.368C175.715 228.88 175.283 229.307 174.707 229.648C174.141 229.979 173.48 230.144 172.723 230.144C171.944 230.144 171.24 229.952 170.611 229.568C169.981 229.184 169.485 228.645 169.123 227.952C168.76 227.259 168.579 226.469 168.579 225.584ZM176.003 225.6C176.003 224.939 175.869 224.363 175.603 223.872C175.336 223.381 174.973 223.008 174.515 222.752C174.067 222.485 173.571 222.352 173.027 222.352C172.483 222.352 171.987 222.48 171.539 222.736C171.091 222.992 170.733 223.365 170.467 223.856C170.2 224.347 170.067 224.923 170.067 225.584C170.067 226.256 170.2 226.843 170.467 227.344C170.733 227.835 171.091 228.213 171.539 228.48C171.987 228.736 172.483 228.864 173.027 228.864C173.571 228.864 174.067 228.736 174.515 228.48C174.973 228.213 175.336 227.835 175.603 227.344C175.869 226.843 176.003 226.261 176.003 225.6ZM181.711 222.432V227.6C181.711 228.027 181.802 228.331 181.983 228.512C182.164 228.683 182.479 228.768 182.927 228.768H183.999V230H182.687C181.876 230 181.268 229.813 180.863 229.44C180.458 229.067 180.255 228.453 180.255 227.6V222.432H179.119V221.232H180.255V219.024H181.711V221.232H183.999V222.432H181.711ZM189.331 222.432H187.491V230H186.035V222.432H184.899V221.232H186.035V220.608C186.035 219.627 186.286 218.912 186.787 218.464C187.299 218.005 188.115 217.776 189.235 217.776V218.992C188.595 218.992 188.142 219.12 187.875 219.376C187.619 219.621 187.491 220.032 187.491 220.608V221.232H189.331V222.432ZM194.853 230.144C194.032 230.144 193.285 229.957 192.613 229.584C191.952 229.211 191.429 228.683 191.045 228C190.672 227.307 190.485 226.507 190.485 225.6C190.485 224.704 190.677 223.915 191.061 223.232C191.456 222.539 191.989 222.011 192.661 221.648C193.333 221.275 194.085 221.088 194.917 221.088C195.749 221.088 196.501 221.275 197.173 221.648C197.845 222.011 198.373 222.533 198.757 223.216C199.152 223.899 199.349 224.693 199.349 225.6C199.349 226.507 199.146 227.307 198.741 228C198.346 228.683 197.808 229.211 197.125 229.584C196.442 229.957 195.685 230.144 194.853 230.144ZM194.853 228.864C195.376 228.864 195.866 228.741 196.325 228.496C196.784 228.251 197.152 227.883 197.429 227.392C197.717 226.901 197.861 226.304 197.861 225.6C197.861 224.896 197.722 224.299 197.445 223.808C197.168 223.317 196.805 222.955 196.357 222.72C195.909 222.475 195.424 222.352 194.901 222.352C194.368 222.352 193.877 222.475 193.429 222.72C192.992 222.955 192.64 223.317 192.373 223.808C192.106 224.299 191.973 224.896 191.973 225.6C191.973 226.315 192.101 226.917 192.357 227.408C192.624 227.899 192.976 228.267 193.413 228.512C193.85 228.747 194.33 228.864 194.853 228.864ZM202.719 222.656C202.975 222.155 203.338 221.765 203.807 221.488C204.287 221.211 204.869 221.072 205.551 221.072V222.576H205.167C203.535 222.576 202.719 223.461 202.719 225.232V230H201.263V221.232H202.719V222.656ZM217.776 221.072C218.459 221.072 219.067 221.216 219.6 221.504C220.133 221.781 220.555 222.203 220.864 222.768C221.173 223.333 221.328 224.021 221.328 224.832V230H219.888V225.04C219.888 224.165 219.669 223.499 219.232 223.04C218.805 222.571 218.224 222.336 217.488 222.336C216.731 222.336 216.128 222.581 215.68 223.072C215.232 223.552 215.008 224.251 215.008 225.168V230H213.568V225.04C213.568 224.165 213.349 223.499 212.912 223.04C212.485 222.571 211.904 222.336 211.168 222.336C210.411 222.336 209.808 222.581 209.36 223.072C208.912 223.552 208.688 224.251 208.688 225.168V230H207.232V221.232H208.688V222.496C208.976 222.037 209.36 221.685 209.84 221.44C210.331 221.195 210.869 221.072 211.456 221.072C212.192 221.072 212.843 221.237 213.408 221.568C213.973 221.899 214.395 222.384 214.672 223.024C214.917 222.405 215.323 221.925 215.888 221.584C216.453 221.243 217.083 221.072 217.776 221.072ZM226.82 230.144C226.148 230.144 225.546 230.032 225.012 229.808C224.479 229.573 224.058 229.253 223.748 228.848C223.439 228.432 223.268 227.957 223.236 227.424H224.74C224.783 227.861 224.986 228.219 225.348 228.496C225.722 228.773 226.207 228.912 226.804 228.912C227.359 228.912 227.796 228.789 228.116 228.544C228.436 228.299 228.596 227.989 228.596 227.616C228.596 227.232 228.426 226.949 228.084 226.768C227.743 226.576 227.215 226.389 226.5 226.208C225.85 226.037 225.316 225.867 224.9 225.696C224.495 225.515 224.143 225.253 223.844 224.912C223.556 224.56 223.412 224.101 223.412 223.536C223.412 223.088 223.546 222.677 223.812 222.304C224.079 221.931 224.458 221.637 224.948 221.424C225.439 221.2 225.999 221.088 226.628 221.088C227.599 221.088 228.383 221.333 228.98 221.824C229.578 222.315 229.898 222.987 229.94 223.84H228.484C228.452 223.381 228.266 223.013 227.924 222.736C227.594 222.459 227.146 222.32 226.58 222.32C226.058 222.32 225.642 222.432 225.332 222.656C225.023 222.88 224.868 223.173 224.868 223.536C224.868 223.824 224.959 224.064 225.14 224.256C225.332 224.437 225.567 224.587 225.844 224.704C226.132 224.811 226.527 224.933 227.028 225.072C227.658 225.243 228.17 225.413 228.564 225.584C228.959 225.744 229.295 225.989 229.572 226.32C229.86 226.651 230.01 227.083 230.02 227.616C230.02 228.096 229.887 228.528 229.62 228.912C229.354 229.296 228.975 229.6 228.484 229.824C228.004 230.037 227.45 230.144 226.82 230.144Z" fill="#505355"/>
<path d="M70.688 244.009V247.737H74.752V248.937H70.688V252.777H75.232V253.977H69.232V242.809H75.232V244.009H70.688ZM82.0111 253.977L79.9311 250.713L77.9311 253.977H76.4111L79.2431 249.625L76.4111 245.209H78.0591L80.1391 248.457L82.1231 245.209H83.6431L80.8271 249.545L83.6591 253.977H82.0111ZM86.5474 246.825C86.8354 246.323 87.262 245.907 87.8274 245.577C88.4034 245.235 89.07 245.065 89.8274 245.065C90.606 245.065 91.31 245.251 91.9394 245.625C92.5794 245.998 93.0807 246.526 93.4434 247.209C93.806 247.881 93.9874 248.665 93.9874 249.561C93.9874 250.446 93.806 251.235 93.4434 251.929C93.0807 252.622 92.5794 253.161 91.9394 253.545C91.31 253.929 90.606 254.121 89.8274 254.121C89.0807 254.121 88.4194 253.955 87.8434 253.625C87.278 253.283 86.846 252.862 86.5474 252.361V258.137H85.0914V245.209H86.5474V246.825ZM92.4994 249.561C92.4994 248.899 92.366 248.323 92.0994 247.833C91.8327 247.342 91.47 246.969 91.0114 246.713C90.5634 246.457 90.0674 246.329 89.5234 246.329C88.99 246.329 88.494 246.462 88.0354 246.729C87.5874 246.985 87.2247 247.363 86.9474 247.865C86.6807 248.355 86.5474 248.926 86.5474 249.577C86.5474 250.238 86.6807 250.819 86.9474 251.321C87.2247 251.811 87.5874 252.19 88.0354 252.457C88.494 252.713 88.99 252.841 89.5234 252.841C90.0674 252.841 90.5634 252.713 91.0114 252.457C91.47 252.19 91.8327 251.811 92.0994 251.321C92.366 250.819 92.4994 250.233 92.4994 249.561ZM97.3599 242.137V253.977H95.9039V242.137H97.3599ZM103.665 254.121C102.844 254.121 102.097 253.934 101.425 253.561C100.764 253.187 100.241 252.659 99.8574 251.977C99.484 251.283 99.2974 250.483 99.2974 249.577C99.2974 248.681 99.4894 247.891 99.8734 247.209C100.268 246.515 100.801 245.987 101.473 245.625C102.145 245.251 102.897 245.065 103.729 245.065C104.561 245.065 105.313 245.251 105.985 245.625C106.657 245.987 107.185 246.51 107.569 247.193C107.964 247.875 108.161 248.67 108.161 249.577C108.161 250.483 107.959 251.283 107.553 251.977C107.159 252.659 106.62 253.187 105.937 253.561C105.255 253.934 104.497 254.121 103.665 254.121ZM103.665 252.841C104.188 252.841 104.679 252.718 105.137 252.473C105.596 252.227 105.964 251.859 106.241 251.369C106.529 250.878 106.673 250.281 106.673 249.577C106.673 248.873 106.535 248.275 106.257 247.785C105.98 247.294 105.617 246.931 105.169 246.697C104.721 246.451 104.236 246.329 103.713 246.329C103.18 246.329 102.689 246.451 102.241 246.697C101.804 246.931 101.452 247.294 101.185 247.785C100.919 248.275 100.785 248.873 100.785 249.577C100.785 250.291 100.913 250.894 101.169 251.385C101.436 251.875 101.788 252.243 102.225 252.489C102.663 252.723 103.143 252.841 103.665 252.841ZM111.532 246.633C111.788 246.131 112.15 245.742 112.62 245.465C113.1 245.187 113.681 245.049 114.364 245.049V246.553H113.98C112.348 246.553 111.532 247.438 111.532 249.209V253.977H110.076V245.209H111.532V246.633ZM124.045 249.257C124.045 249.534 124.029 249.827 123.997 250.137H116.989C117.042 251.001 117.335 251.678 117.869 252.169C118.413 252.649 119.069 252.889 119.837 252.889C120.466 252.889 120.989 252.745 121.405 252.457C121.831 252.158 122.13 251.763 122.301 251.273H123.869C123.634 252.115 123.165 252.803 122.461 253.337C121.757 253.859 120.882 254.121 119.837 254.121C119.005 254.121 118.258 253.934 117.597 253.561C116.946 253.187 116.434 252.659 116.061 251.977C115.687 251.283 115.501 250.483 115.501 249.577C115.501 248.67 115.682 247.875 116.045 247.193C116.407 246.51 116.914 245.987 117.565 245.625C118.226 245.251 118.983 245.065 119.837 245.065C120.669 245.065 121.405 245.246 122.045 245.609C122.685 245.971 123.175 246.473 123.517 247.113C123.869 247.742 124.045 248.457 124.045 249.257ZM122.541 248.953C122.541 248.398 122.418 247.923 122.173 247.529C121.927 247.123 121.591 246.819 121.165 246.617C120.749 246.403 120.285 246.297 119.773 246.297C119.037 246.297 118.407 246.531 117.885 247.001C117.373 247.47 117.079 248.121 117.005 248.953H122.541Z" fill="#73787A"/>
<path d="M128 251.977C128 250.872 128.895 249.977 130 249.977C131.105 249.977 132 250.872 132 251.977C132 253.081 131.105 253.977 130 253.977C128.895 253.977 128 253.081 128 251.977Z" fill="#73787A"/>
<path d="M83.232 291.809V293.009H78.688V296.737H82.752V297.937H78.688V301.777H83.232V302.977H77.232V291.809H83.232ZM90.0111 302.977L87.9311 299.713L85.9311 302.977H84.4111L87.2431 298.625L84.4111 294.209H86.0591L88.1391 297.457L90.1231 294.209H91.6431L88.8271 298.545L91.6591 302.977H90.0111ZM94.5474 295.825C95.0754 294.897 96.2274 294.065 97.8274 294.065C100.179 294.065 101.987 295.825 101.987 298.561C101.987 301.281 100.179 303.121 97.8274 303.121C96.2274 303.121 95.0914 302.257 94.5474 301.361V307.137H93.0914V294.209H94.5474V295.825ZM100.499 298.561C100.499 296.497 99.1394 295.329 97.5234 295.329C95.9394 295.329 94.5474 296.545 94.5474 298.577C94.5474 300.641 95.9394 301.841 97.5234 301.841C99.1394 301.841 100.499 300.625 100.499 298.561ZM103.904 302.977V291.137H105.36V302.977H103.904ZM116.161 298.577C116.161 301.361 114.161 303.121 111.665 303.121C109.185 303.121 107.297 301.361 107.297 298.577C107.297 295.809 109.249 294.065 111.729 294.065C114.225 294.065 116.161 295.809 116.161 298.577ZM108.785 298.577C108.785 300.801 110.145 301.841 111.665 301.841C113.185 301.841 114.673 300.801 114.673 298.577C114.673 296.369 113.217 295.329 111.713 295.329C110.177 295.329 108.785 296.369 108.785 298.577ZM119.532 298.209V302.977H118.076V294.209H119.532V295.633C120.028 294.657 120.972 294.049 122.364 294.049V295.553H121.98C120.588 295.553 119.532 296.177 119.532 298.209ZM127.773 295.297C126.349 295.297 125.164 296.241 125.005 297.953H130.541C130.557 296.241 129.277 295.297 127.773 295.297ZM131.869 300.273C131.421 301.873 130.013 303.121 127.837 303.121C125.341 303.121 123.501 301.361 123.501 298.577C123.501 295.809 125.277 294.065 127.837 294.065C130.381 294.065 132.045 295.857 132.045 298.257C132.045 298.577 132.029 298.833 131.997 299.137H124.989C125.101 300.913 126.349 301.889 127.837 301.889C129.149 301.889 129.981 301.217 130.301 300.273H131.869Z" fill="#73787A"/>
<path d="M140.75 296.977H151.25" stroke="#73787A" stroke-linecap="round" stroke-linejoin="round"/>
<path d="M146 291.727L151.25 296.977L146 302.227" stroke="#73787A" stroke-linecap="round" stroke-linejoin="round"/>
</g>
<g filter="url(#filter1_d_58_149)">
<path d="M20 384.977C20 380.558 23.5817 376.977 28 376.977H299.328C303.746 376.977 307.328 380.558 307.328 384.977V705.953C307.328 710.371 303.746 713.953 299.328 713.953H28C23.5817 713.953 20 710.371 20 705.953V384.977Z" fill="white" shape-rendering="crispEdges"/>
<path d="M28 377.977H299.328C303.194 377.977 306.328 381.111 306.328 384.977V705.953C306.328 709.819 303.194 712.953 299.328 712.953H28C24.134 712.953 21 709.819 21 705.953V384.977L21.0088 384.616C21.1963 380.918 24.2549 377.977 28 377.977Z" stroke="#FFCC80" stroke-width="2" shape-rendering="crispEdges"/>
<path d="M68 448.977C68 435.722 78.7452 424.977 92 424.977C105.255 424.977 116 435.722 116 448.977C116 462.231 105.255 472.977 92 472.977C78.7452 472.977 68 462.231 68 448.977Z" fill="#FFA500"/>
<path d="M93.5 443.977C93.7761 443.977 94 443.753 94 443.477C94 443.2 93.7761 442.977 93.5 442.977C93.2239 442.977 93 443.2 93 443.477C93 443.753 93.2239 443.977 93.5 443.977Z" fill="white" stroke="white" stroke-width="2" stroke-linecap="round" stroke-linejoin="round"/>
<path d="M97.5 447.977C97.7761 447.977 98 447.753 98 447.477C98 447.2 97.7761 446.977 97.5 446.977C97.2239 446.977 97 447.2 97 447.477C97 447.753 97.2239 447.977 97.5 447.977Z" fill="white" stroke="white" stroke-width="2" stroke-linecap="round" stroke-linejoin="round"/>
<path d="M88.5 444.977C88.7761 444.977 89 444.753 89 444.477C89 444.2 88.7761 443.977 88.5 443.977C88.2239 443.977 88 444.2 88 444.477C88 444.753 88.2239 444.977 88.5 444.977Z" fill="white" stroke="white" stroke-width="2" stroke-linecap="round" stroke-linejoin="round"/>
<path d="M86.5 449.977C86.7761 449.977 87 449.753 87 449.477C87 449.2 86.7761 448.977 86.5 448.977C86.2239 448.977 86 449.2 86 449.477C86 449.753 86.2239 449.977 86.5 449.977Z" fill="white" stroke="white" stroke-width="2" stroke-linecap="round" stroke-linejoin="round"/>
<path d="M92 438.977C86.5 438.977 82 443.477 82 448.977C82 454.477 86.5 458.977 92 458.977C92.926 458.977 93.648 458.231 93.648 457.289C93.648 456.852 93.468 456.454 93.211 456.164C92.921 455.875 92.773 455.512 92.773 455.039C92.7692 454.818 92.8098 454.6 92.8922 454.396C92.9747 454.192 93.0975 454.006 93.2531 453.851C93.4088 453.695 93.5941 453.572 93.7982 453.49C94.0023 453.407 94.2209 453.367 94.441 453.371H96.437C99.488 453.371 101.992 450.868 101.992 447.817C101.965 442.989 97.461 438.977 92 438.977Z" stroke="white" stroke-width="2" stroke-linecap="round" stroke-linejoin="round"/>
<path d="M76.764 498.433C78.8173 498.433 80.6187 498.834 82.168 499.637C83.736 500.439 84.94 501.587 85.78 503.081C86.6387 504.555 87.068 506.273 87.068 508.233C87.068 510.193 86.6387 511.91 85.78 513.385C84.94 514.841 83.736 515.97 82.168 516.773C80.6187 517.575 78.8173 517.977 76.764 517.977H69.932V498.433H76.764ZM76.624 514.645C78.6773 514.645 80.264 514.085 81.384 512.965C82.504 511.845 83.064 510.267 83.064 508.233C83.064 506.198 82.504 504.611 81.384 503.473C80.264 502.315 78.6773 501.737 76.624 501.737H73.852V514.645H76.624ZM104.422 509.885C104.422 510.445 104.385 510.949 104.31 511.397H92.9703C93.0636 512.517 93.4556 513.394 94.1463 514.029C94.837 514.663 95.6863 514.981 96.6943 514.981C98.1503 514.981 99.1863 514.355 99.8023 513.105H104.03C103.582 514.598 102.724 515.83 101.454 516.801C100.185 517.753 98.6263 518.229 96.7783 518.229C95.285 518.229 93.941 517.902 92.7463 517.249C91.5703 516.577 90.6463 515.634 89.9743 514.421C89.321 513.207 88.9943 511.807 88.9943 510.221C88.9943 508.615 89.321 507.206 89.9743 505.993C90.6276 504.779 91.5423 503.846 92.7183 503.193C93.8943 502.539 95.2476 502.213 96.7783 502.213C98.253 502.213 99.569 502.53 100.726 503.165C101.902 503.799 102.808 504.705 103.442 505.881C104.096 507.038 104.422 508.373 104.422 509.885ZM100.362 508.765C100.344 507.757 99.9796 506.954 99.2703 506.357C98.561 505.741 97.693 505.433 96.6663 505.433C95.6956 505.433 94.8743 505.731 94.2023 506.329C93.549 506.907 93.1476 507.719 92.9983 508.765H100.362ZM113.22 518.229C111.95 518.229 110.812 518.005 109.804 517.557C108.796 517.09 107.993 516.465 107.396 515.681C106.817 514.897 106.5 514.029 106.444 513.077H110.392C110.466 513.674 110.756 514.169 111.26 514.561C111.782 514.953 112.426 515.149 113.192 515.149C113.938 515.149 114.517 514.999 114.928 514.701C115.357 514.402 115.572 514.019 115.572 513.553C115.572 513.049 115.31 512.675 114.788 512.433C114.284 512.171 113.472 511.891 112.352 511.593C111.194 511.313 110.242 511.023 109.496 510.725C108.768 510.426 108.133 509.969 107.592 509.353C107.069 508.737 106.808 507.906 106.808 506.861C106.808 506.002 107.05 505.218 107.536 504.509C108.04 503.799 108.749 503.239 109.664 502.829C110.597 502.418 111.689 502.213 112.94 502.213C114.788 502.213 116.262 502.679 117.364 503.613C118.465 504.527 119.072 505.769 119.184 507.337H115.432C115.376 506.721 115.114 506.235 114.648 505.881C114.2 505.507 113.593 505.321 112.828 505.321C112.118 505.321 111.568 505.451 111.176 505.713C110.802 505.974 110.616 506.338 110.616 506.805C110.616 507.327 110.877 507.729 111.4 508.009C111.922 508.27 112.734 508.541 113.836 508.821C114.956 509.101 115.88 509.39 116.608 509.689C117.336 509.987 117.961 510.454 118.484 511.089C119.025 511.705 119.305 512.526 119.324 513.553C119.324 514.449 119.072 515.251 118.568 515.961C118.082 516.67 117.373 517.23 116.44 517.641C115.525 518.033 114.452 518.229 113.22 518.229ZM124.529 500.617C123.839 500.617 123.26 500.402 122.793 499.973C122.345 499.525 122.121 498.974 122.121 498.321C122.121 497.667 122.345 497.126 122.793 496.697C123.26 496.249 123.839 496.025 124.529 496.025C125.22 496.025 125.789 496.249 126.237 496.697C126.704 497.126 126.937 497.667 126.937 498.321C126.937 498.974 126.704 499.525 126.237 499.973C125.789 500.402 125.22 500.617 124.529 500.617ZM126.461 502.465V517.977H122.541V502.465H126.461ZM136.41 502.213C137.568 502.213 138.585 502.446 139.462 502.913C140.34 503.361 141.03 503.949 141.534 504.677V502.465H145.482V518.089C145.482 519.526 145.193 520.805 144.614 521.925C144.036 523.063 143.168 523.959 142.01 524.613C140.853 525.285 139.453 525.621 137.81 525.621C135.608 525.621 133.797 525.107 132.378 524.081C130.978 523.054 130.185 521.654 129.998 519.881H133.89C134.096 520.59 134.534 521.15 135.206 521.561C135.897 521.99 136.728 522.205 137.698 522.205C138.837 522.205 139.761 521.859 140.47 521.169C141.18 520.497 141.534 519.47 141.534 518.089V515.681C141.03 516.409 140.33 517.015 139.434 517.501C138.557 517.986 137.549 518.229 136.41 518.229C135.104 518.229 133.909 517.893 132.826 517.221C131.744 516.549 130.885 515.606 130.25 514.393C129.634 513.161 129.326 511.751 129.326 510.165C129.326 508.597 129.634 507.206 130.25 505.993C130.885 504.779 131.734 503.846 132.798 503.193C133.881 502.539 135.085 502.213 136.41 502.213ZM141.534 510.221C141.534 509.269 141.348 508.457 140.974 507.785C140.601 507.094 140.097 506.571 139.462 506.217C138.828 505.843 138.146 505.657 137.418 505.657C136.69 505.657 136.018 505.834 135.402 506.189C134.786 506.543 134.282 507.066 133.89 507.757C133.517 508.429 133.33 509.231 133.33 510.165C133.33 511.098 133.517 511.919 133.89 512.629C134.282 513.319 134.786 513.851 135.402 514.225C136.037 514.598 136.709 514.785 137.418 514.785C138.146 514.785 138.828 514.607 139.462 514.253C140.097 513.879 140.601 513.357 140.974 512.685C141.348 511.994 141.534 511.173 141.534 510.221ZM157.907 502.241C159.755 502.241 161.248 502.829 162.387 504.005C163.526 505.162 164.095 506.786 164.095 508.877V517.977H160.175V509.409C160.175 508.177 159.867 507.234 159.251 506.581C158.635 505.909 157.795 505.573 156.731 505.573C155.648 505.573 154.79 505.909 154.155 506.581C153.539 507.234 153.231 508.177 153.231 509.409V517.977H149.311V502.465H153.231V504.397C153.754 503.725 154.416 503.202 155.219 502.829C156.04 502.437 156.936 502.241 157.907 502.241ZM178.415 514.869H184.855V517.977H174.495V498.433H178.415V514.869ZM186.338 510.165C186.338 508.597 186.646 507.206 187.262 505.993C187.897 504.779 188.746 503.846 189.81 503.193C190.893 502.539 192.097 502.213 193.422 502.213C194.579 502.213 195.587 502.446 196.446 502.913C197.323 503.379 198.023 503.967 198.546 504.677V502.465H202.494V517.977H198.546V515.709C198.042 516.437 197.342 517.043 196.446 517.529C195.569 517.995 194.551 518.229 193.394 518.229C192.087 518.229 190.893 517.893 189.81 517.221C188.746 516.549 187.897 515.606 187.262 514.393C186.646 513.161 186.338 511.751 186.338 510.165ZM198.546 510.221C198.546 509.269 198.359 508.457 197.986 507.785C197.613 507.094 197.109 506.571 196.474 506.217C195.839 505.843 195.158 505.657 194.43 505.657C193.702 505.657 193.03 505.834 192.414 506.189C191.798 506.543 191.294 507.066 190.902 507.757C190.529 508.429 190.342 509.231 190.342 510.165C190.342 511.098 190.529 511.919 190.902 512.629C191.294 513.319 191.798 513.851 192.414 514.225C193.049 514.598 193.721 514.785 194.43 514.785C195.158 514.785 195.839 514.607 196.474 514.253C197.109 513.879 197.613 513.357 197.986 512.685C198.359 511.994 198.546 511.173 198.546 510.221ZM221.163 502.465L211.559 525.313H207.387L210.747 517.585L204.531 502.465H208.927L212.931 513.301L216.991 502.465H221.163ZM237.696 509.885C237.696 510.445 237.658 510.949 237.584 511.397H226.244C226.337 512.517 226.729 513.394 227.42 514.029C228.11 514.663 228.96 514.981 229.968 514.981C231.424 514.981 232.46 514.355 233.076 513.105H237.304C236.856 514.598 235.997 515.83 234.728 516.801C233.458 517.753 231.9 518.229 230.052 518.229C228.558 518.229 227.214 517.902 226.02 517.249C224.844 516.577 223.92 515.634 223.248 514.421C222.594 513.207 222.268 511.807 222.268 510.221C222.268 508.615 222.594 507.206 223.248 505.993C223.901 504.779 224.816 503.846 225.992 503.193C227.168 502.539 228.521 502.213 230.052 502.213C231.526 502.213 232.842 502.53 234 503.165C235.176 503.799 236.081 504.705 236.716 505.881C237.369 507.038 237.696 508.373 237.696 509.885ZM233.636 508.765C233.617 507.757 233.253 506.954 232.544 506.357C231.834 505.741 230.966 505.433 229.94 505.433C228.969 505.433 228.148 505.731 227.476 506.329C226.822 506.907 226.421 507.719 226.272 508.765H233.636ZM244.477 504.873C244.981 504.051 245.634 503.407 246.437 502.941C247.258 502.474 248.192 502.241 249.237 502.241V506.357H248.201C246.969 506.357 246.036 506.646 245.401 507.225C244.785 507.803 244.477 508.811 244.477 510.249V517.977H240.557V502.465H244.477V504.873Z" fill="#2B2D2E"/>
<path d="M77.824 551.825V562.977H76.368V557.921H70.688V562.977H69.232V551.825H70.688V556.721H76.368V551.825H77.824ZM88.0861 554.209V562.977H86.6301V561.681C86.3528 562.129 85.9635 562.481 85.4621 562.737C84.9715 562.982 84.4275 563.105 83.8301 563.105C83.1475 563.105 82.5341 562.966 81.9901 562.689C81.4461 562.401 81.0141 561.974 80.6941 561.409C80.3848 560.843 80.2301 560.155 80.2301 559.345V554.209H81.6701V559.153C81.6701 560.017 81.8888 560.683 82.3261 561.153C82.7635 561.611 83.3608 561.841 84.1181 561.841C84.8968 561.841 85.5101 561.601 85.9581 561.121C86.4061 560.641 86.6301 559.942 86.6301 559.025V554.209H88.0861ZM101.089 554.049C101.771 554.049 102.379 554.193 102.913 554.481C103.446 554.758 103.867 555.179 104.177 555.745C104.486 556.31 104.641 556.998 104.641 557.809V562.977H103.201V558.017C103.201 557.142 102.982 556.475 102.545 556.017C102.118 555.547 101.537 555.313 100.801 555.313C100.043 555.313 99.4405 555.558 98.9925 556.049C98.5445 556.529 98.3205 557.227 98.3205 558.145V562.977H96.8805V558.017C96.8805 557.142 96.6618 556.475 96.2245 556.017C95.7978 555.547 95.2165 555.313 94.4805 555.313C93.7232 555.313 93.1205 555.558 92.6725 556.049C92.2245 556.529 92.0005 557.227 92.0005 558.145V562.977H90.5445V554.209H92.0005V555.473C92.2885 555.014 92.6725 554.662 93.1525 554.417C93.6432 554.171 94.1818 554.049 94.7685 554.049C95.5045 554.049 96.1552 554.214 96.7205 554.545C97.2858 554.875 97.7072 555.361 97.9845 556.001C98.2298 555.382 98.6352 554.902 99.2005 554.561C99.7658 554.219 100.395 554.049 101.089 554.049ZM106.485 558.561C106.485 557.665 106.666 556.881 107.029 556.209C107.392 555.526 107.888 554.998 108.517 554.625C109.157 554.251 109.866 554.065 110.645 554.065C111.413 554.065 112.08 554.23 112.645 554.561C113.21 554.891 113.632 555.307 113.909 555.809V554.209H115.381V562.977H113.909V561.345C113.621 561.857 113.189 562.283 112.613 562.625C112.048 562.955 111.386 563.121 110.629 563.121C109.85 563.121 109.146 562.929 108.517 562.545C107.888 562.161 107.392 561.622 107.029 560.929C106.666 560.235 106.485 559.446 106.485 558.561ZM113.909 558.577C113.909 557.915 113.776 557.339 113.509 556.849C113.242 556.358 112.88 555.985 112.421 555.729C111.973 555.462 111.477 555.329 110.933 555.329C110.389 555.329 109.893 555.457 109.445 555.713C108.997 555.969 108.64 556.342 108.373 556.833C108.106 557.323 107.973 557.899 107.973 558.561C107.973 559.233 108.106 559.819 108.373 560.321C108.64 560.811 108.997 561.19 109.445 561.457C109.893 561.713 110.389 561.841 110.933 561.841C111.477 561.841 111.973 561.713 112.421 561.457C112.88 561.19 113.242 560.811 113.509 560.321C113.776 559.819 113.909 559.238 113.909 558.577ZM122.113 554.049C123.18 554.049 124.044 554.374 124.705 555.025C125.367 555.665 125.697 556.593 125.697 557.809V562.977H124.257V558.017C124.257 557.142 124.039 556.475 123.601 556.017C123.164 555.547 122.567 555.313 121.809 555.313C121.041 555.313 120.428 555.553 119.969 556.033C119.521 556.513 119.297 557.211 119.297 558.129V562.977H117.841V554.209H119.297V555.457C119.585 555.009 119.975 554.662 120.465 554.417C120.967 554.171 121.516 554.049 122.113 554.049ZM134.156 556.497V557.729H127.772V556.497H134.156ZM136.344 558.577C136.344 557.67 136.526 556.881 136.888 556.209C137.251 555.526 137.752 554.998 138.392 554.625C139.043 554.251 139.784 554.065 140.616 554.065C141.694 554.065 142.579 554.326 143.272 554.849C143.976 555.371 144.44 556.097 144.664 557.025H143.096C142.947 556.491 142.654 556.07 142.216 555.761C141.79 555.451 141.256 555.297 140.616 555.297C139.784 555.297 139.112 555.585 138.6 556.161C138.088 556.726 137.832 557.531 137.832 558.577C137.832 559.633 138.088 560.449 138.6 561.025C139.112 561.601 139.784 561.889 140.616 561.889C141.256 561.889 141.79 561.739 142.216 561.441C142.643 561.142 142.936 560.715 143.096 560.161H144.664C144.43 561.057 143.96 561.777 143.256 562.321C142.552 562.854 141.672 563.121 140.616 563.121C139.784 563.121 139.043 562.934 138.392 562.561C137.752 562.187 137.251 561.659 136.888 560.977C136.526 560.294 136.344 559.494 136.344 558.577ZM154.607 558.257C154.607 558.534 154.591 558.827 154.559 559.137H147.551C147.604 560.001 147.898 560.678 148.431 561.169C148.975 561.649 149.631 561.889 150.399 561.889C151.028 561.889 151.551 561.745 151.967 561.457C152.394 561.158 152.692 560.763 152.863 560.273H154.431C154.196 561.115 153.727 561.803 153.023 562.337C152.319 562.859 151.444 563.121 150.399 563.121C149.567 563.121 148.82 562.934 148.159 562.561C147.508 562.187 146.996 561.659 146.623 560.977C146.25 560.283 146.063 559.483 146.063 558.577C146.063 557.67 146.244 556.875 146.607 556.193C146.97 555.51 147.476 554.987 148.127 554.625C148.788 554.251 149.546 554.065 150.399 554.065C151.231 554.065 151.967 554.246 152.607 554.609C153.247 554.971 153.738 555.473 154.079 556.113C154.431 556.742 154.607 557.457 154.607 558.257ZM153.103 557.953C153.103 557.398 152.98 556.923 152.735 556.529C152.49 556.123 152.154 555.819 151.727 555.617C151.311 555.403 150.847 555.297 150.335 555.297C149.599 555.297 148.97 555.531 148.447 556.001C147.935 556.47 147.642 557.121 147.567 557.953H153.103ZM160.801 554.049C161.868 554.049 162.732 554.374 163.393 555.025C164.054 555.665 164.385 556.593 164.385 557.809V562.977H162.945V558.017C162.945 557.142 162.726 556.475 162.289 556.017C161.852 555.547 161.254 555.313 160.497 555.313C159.729 555.313 159.116 555.553 158.657 556.033C158.209 556.513 157.985 557.211 157.985 558.129V562.977H156.529V554.209H157.985V555.457C158.273 555.009 158.662 554.662 159.153 554.417C159.654 554.171 160.204 554.049 160.801 554.049ZM168.539 555.409V560.577C168.539 561.003 168.63 561.307 168.811 561.489C168.993 561.659 169.307 561.745 169.755 561.745H170.827V562.977H169.515C168.705 562.977 168.097 562.79 167.691 562.417C167.286 562.043 167.083 561.43 167.083 560.577V555.409H165.947V554.209H167.083V552.001H168.539V554.209H170.827V555.409H168.539ZM180.591 558.257C180.591 558.534 180.575 558.827 180.543 559.137H173.535C173.589 560.001 173.882 560.678 174.415 561.169C174.959 561.649 175.615 561.889 176.383 561.889C177.013 561.889 177.535 561.745 177.951 561.457C178.378 561.158 178.677 560.763 178.847 560.273H180.415C180.181 561.115 179.711 561.803 179.007 562.337C178.303 562.859 177.429 563.121 176.383 563.121C175.551 563.121 174.805 562.934 174.143 562.561C173.493 562.187 172.981 561.659 172.607 560.977C172.234 560.283 172.047 559.483 172.047 558.577C172.047 557.67 172.229 556.875 172.591 556.193C172.954 555.51 173.461 554.987 174.111 554.625C174.773 554.251 175.53 554.065 176.383 554.065C177.215 554.065 177.951 554.246 178.591 554.609C179.231 554.971 179.722 555.473 180.063 556.113C180.415 556.742 180.591 557.457 180.591 558.257ZM179.087 557.953C179.087 557.398 178.965 556.923 178.719 556.529C178.474 556.123 178.138 555.819 177.711 555.617C177.295 555.403 176.831 555.297 176.319 555.297C175.583 555.297 174.954 555.531 174.431 556.001C173.919 556.47 173.626 557.121 173.551 557.953H179.087ZM183.969 555.633C184.225 555.131 184.588 554.742 185.057 554.465C185.537 554.187 186.119 554.049 186.801 554.049V555.553H186.417C184.785 555.553 183.969 556.438 183.969 558.209V562.977H182.513V554.209H183.969V555.633ZM196.482 558.257C196.482 558.534 196.466 558.827 196.434 559.137H189.426C189.479 560.001 189.773 560.678 190.306 561.169C190.85 561.649 191.506 561.889 192.274 561.889C192.903 561.889 193.426 561.745 193.842 561.457C194.269 561.158 194.567 560.763 194.738 560.273H196.306C196.071 561.115 195.602 561.803 194.898 562.337C194.194 562.859 193.319 563.121 192.274 563.121C191.442 563.121 190.695 562.934 190.034 562.561C189.383 562.187 188.871 561.659 188.498 560.977C188.125 560.283 187.938 559.483 187.938 558.577C187.938 557.67 188.119 556.875 188.482 556.193C188.845 555.51 189.351 554.987 190.002 554.625C190.663 554.251 191.421 554.065 192.274 554.065C193.106 554.065 193.842 554.246 194.482 554.609C195.122 554.971 195.613 555.473 195.954 556.113C196.306 556.742 196.482 557.457 196.482 558.257ZM194.978 557.953C194.978 557.398 194.855 556.923 194.61 556.529C194.365 556.123 194.029 555.819 193.602 555.617C193.186 555.403 192.722 555.297 192.21 555.297C191.474 555.297 190.845 555.531 190.322 556.001C189.81 556.47 189.517 557.121 189.442 557.953H194.978ZM197.86 558.561C197.86 557.665 198.041 556.881 198.404 556.209C198.767 555.526 199.263 554.998 199.892 554.625C200.532 554.251 201.247 554.065 202.036 554.065C202.719 554.065 203.353 554.225 203.94 554.545C204.527 554.854 204.975 555.265 205.284 555.777V551.137H206.756V562.977H205.284V561.329C204.996 561.851 204.569 562.283 204.004 562.625C203.439 562.955 202.777 563.121 202.02 563.121C201.241 563.121 200.532 562.929 199.892 562.545C199.263 562.161 198.767 561.622 198.404 560.929C198.041 560.235 197.86 559.446 197.86 558.561ZM205.284 558.577C205.284 557.915 205.151 557.339 204.884 556.849C204.617 556.358 204.255 555.985 203.796 555.729C203.348 555.462 202.852 555.329 202.308 555.329C201.764 555.329 201.268 555.457 200.82 555.713C200.372 555.969 200.015 556.342 199.748 556.833C199.481 557.323 199.348 557.899 199.348 558.561C199.348 559.233 199.481 559.819 199.748 560.321C200.015 560.811 200.372 561.19 200.82 561.457C201.268 561.713 201.764 561.841 202.308 561.841C202.852 561.841 203.348 561.713 203.796 561.457C204.255 561.19 204.617 560.811 204.884 560.321C205.151 559.819 205.284 559.238 205.284 558.577ZM214.906 551.825V558.881C214.906 559.873 215.146 560.609 215.626 561.089C216.117 561.569 216.794 561.809 217.658 561.809C218.511 561.809 219.178 561.569 219.658 561.089C220.149 560.609 220.394 559.873 220.394 558.881V551.825H221.85V558.865C221.85 559.793 221.663 560.577 221.29 561.217C220.917 561.846 220.41 562.315 219.77 562.625C219.141 562.934 218.431 563.089 217.642 563.089C216.853 563.089 216.138 562.934 215.498 562.625C214.869 562.315 214.367 561.846 213.994 561.217C213.631 560.577 213.45 559.793 213.45 558.865V551.825H214.906ZM228.839 557.409L232.263 562.977H230.615L227.943 558.625L225.399 562.977H223.783L227.191 557.409L223.767 551.825H225.399L228.087 556.193L230.647 551.825H232.279L228.839 557.409ZM242.05 555.409H240.21V562.977H238.754V555.409H237.618V554.209H238.754V553.585C238.754 552.603 239.005 551.889 239.506 551.441C240.018 550.982 240.834 550.753 241.954 550.753V551.969C241.314 551.969 240.861 552.097 240.594 552.353C240.338 552.598 240.21 553.009 240.21 553.585V554.209H242.05V555.409ZM247.572 563.121C246.75 563.121 246.004 562.934 245.332 562.561C244.67 562.187 244.148 561.659 243.764 560.977C243.39 560.283 243.204 559.483 243.204 558.577C243.204 557.681 243.396 556.891 243.78 556.209C244.174 555.515 244.708 554.987 245.38 554.625C246.052 554.251 246.804 554.065 247.636 554.065C248.468 554.065 249.22 554.251 249.892 554.625C250.564 554.987 251.092 555.51 251.476 556.193C251.87 556.875 252.068 557.67 252.068 558.577C252.068 559.483 251.865 560.283 251.46 560.977C251.065 561.659 250.526 562.187 249.844 562.561C249.161 562.934 248.404 563.121 247.572 563.121ZM247.572 561.841C248.094 561.841 248.585 561.718 249.044 561.473C249.502 561.227 249.87 560.859 250.148 560.369C250.436 559.878 250.58 559.281 250.58 558.577C250.58 557.873 250.441 557.275 250.164 556.785C249.886 556.294 249.524 555.931 249.076 555.697C248.628 555.451 248.142 555.329 247.62 555.329C247.086 555.329 246.596 555.451 246.148 555.697C245.71 555.931 245.358 556.294 245.092 556.785C244.825 557.275 244.692 557.873 244.692 558.577C244.692 559.291 244.82 559.894 245.076 560.385C245.342 560.875 245.694 561.243 246.132 561.489C246.569 561.723 247.049 561.841 247.572 561.841ZM255.438 555.633C255.694 555.131 256.057 554.742 256.526 554.465C257.006 554.187 257.587 554.049 258.27 554.049V555.553H257.886C256.254 555.553 255.438 556.438 255.438 558.209V562.977H253.982V554.209H255.438V555.633ZM77.232 582.257C77.232 582.534 77.216 582.827 77.184 583.137H70.176C70.2293 584.001 70.5227 584.678 71.056 585.169C71.6 585.649 72.256 585.889 73.024 585.889C73.6533 585.889 74.176 585.745 74.592 585.457C75.0187 585.158 75.3173 584.763 75.488 584.273H77.056C76.8213 585.115 76.352 585.803 75.648 586.337C74.944 586.859 74.0693 587.121 73.024 587.121C72.192 587.121 71.4453 586.934 70.784 586.561C70.1333 586.187 69.6213 585.659 69.248 584.977C68.8747 584.283 68.688 583.483 68.688 582.577C68.688 581.67 68.8693 580.875 69.232 580.193C69.5947 579.51 70.1013 578.987 70.752 578.625C71.4133 578.251 72.1707 578.065 73.024 578.065C73.856 578.065 74.592 578.246 75.232 578.609C75.872 578.971 76.3627 579.473 76.704 580.113C77.056 580.742 77.232 581.457 77.232 582.257ZM75.728 581.953C75.728 581.398 75.6053 580.923 75.36 580.529C75.1147 580.123 74.7787 579.819 74.352 579.617C73.936 579.403 73.472 579.297 72.96 579.297C72.224 579.297 71.5947 579.531 71.072 580.001C70.56 580.47 70.2667 581.121 70.192 581.953H75.728ZM83.4259 578.049C84.4925 578.049 85.3565 578.374 86.0179 579.025C86.6792 579.665 87.0099 580.593 87.0099 581.809V586.977H85.5699V582.017C85.5699 581.142 85.3512 580.475 84.9139 580.017C84.4765 579.547 83.8792 579.313 83.1219 579.313C82.3539 579.313 81.7405 579.553 81.2819 580.033C80.8339 580.513 80.6099 581.211 80.6099 582.129V586.977H79.1539V578.209H80.6099V579.457C80.8979 579.009 81.2872 578.662 81.7779 578.417C82.2792 578.171 82.8285 578.049 83.4259 578.049ZM91.1643 579.409V584.577C91.1643 585.003 91.2549 585.307 91.4363 585.489C91.6176 585.659 91.9323 585.745 92.3802 585.745H93.4523V586.977H92.1403C91.3296 586.977 90.7216 586.79 90.3163 586.417C89.9109 586.043 89.7083 585.43 89.7083 584.577V579.409H88.5723V578.209H89.7083V576.001H91.1643V578.209H93.4523V579.409H91.1643ZM103.216 582.257C103.216 582.534 103.2 582.827 103.168 583.137H96.1604C96.2137 584.001 96.507 584.678 97.0404 585.169C97.5844 585.649 98.2404 585.889 99.0084 585.889C99.6377 585.889 100.16 585.745 100.576 585.457C101.003 585.158 101.302 584.763 101.472 584.273H103.04C102.806 585.115 102.336 585.803 101.632 586.337C100.928 586.859 100.054 587.121 99.0084 587.121C98.1764 587.121 97.4297 586.934 96.7684 586.561C96.1177 586.187 95.6057 585.659 95.2324 584.977C94.859 584.283 94.6724 583.483 94.6724 582.577C94.6724 581.67 94.8537 580.875 95.2164 580.193C95.579 579.51 96.0857 578.987 96.7364 578.625C97.3977 578.251 98.155 578.065 99.0084 578.065C99.8404 578.065 100.576 578.246 101.216 578.609C101.856 578.971 102.347 579.473 102.688 580.113C103.04 580.742 103.216 581.457 103.216 582.257ZM101.712 581.953C101.712 581.398 101.59 580.923 101.344 580.529C101.099 580.123 100.763 579.819 100.336 579.617C99.9204 579.403 99.4564 579.297 98.9444 579.297C98.2084 579.297 97.579 579.531 97.0564 580.001C96.5444 580.47 96.251 581.121 96.1764 581.953H101.712ZM106.594 579.633C106.85 579.131 107.213 578.742 107.682 578.465C108.162 578.187 108.744 578.049 109.426 578.049V579.553H109.042C107.41 579.553 106.594 580.438 106.594 582.209V586.977H105.138V578.209H106.594V579.633ZM112.563 579.825C112.851 579.323 113.278 578.907 113.843 578.577C114.419 578.235 115.086 578.065 115.843 578.065C116.622 578.065 117.326 578.251 117.955 578.625C118.595 578.998 119.096 579.526 119.459 580.209C119.822 580.881 120.003 581.665 120.003 582.561C120.003 583.446 119.822 584.235 119.459 584.929C119.096 585.622 118.595 586.161 117.955 586.545C117.326 586.929 116.622 587.121 115.843 587.121C115.096 587.121 114.435 586.955 113.859 586.625C113.294 586.283 112.862 585.862 112.563 585.361V591.137H111.107V578.209H112.563V579.825ZM118.515 582.561C118.515 581.899 118.382 581.323 118.115 580.833C117.848 580.342 117.486 579.969 117.027 579.713C116.579 579.457 116.083 579.329 115.539 579.329C115.006 579.329 114.51 579.462 114.051 579.729C113.603 579.985 113.24 580.363 112.963 580.865C112.696 581.355 112.563 581.926 112.563 582.577C112.563 583.238 112.696 583.819 112.963 584.321C113.24 584.811 113.603 585.19 114.051 585.457C114.51 585.713 115.006 585.841 115.539 585.841C116.083 585.841 116.579 585.713 117.027 585.457C117.486 585.19 117.848 584.811 118.115 584.321C118.382 583.819 118.515 583.233 118.515 582.561ZM123.376 579.633C123.632 579.131 123.994 578.742 124.464 578.465C124.944 578.187 125.525 578.049 126.208 578.049V579.553H125.824C124.192 579.553 123.376 580.438 123.376 582.209V586.977H121.92V578.209H123.376V579.633ZM128.64 576.785C128.363 576.785 128.128 576.689 127.936 576.497C127.744 576.305 127.648 576.07 127.648 575.793C127.648 575.515 127.744 575.281 127.936 575.089C128.128 574.897 128.363 574.801 128.64 574.801C128.907 574.801 129.131 574.897 129.312 575.089C129.504 575.281 129.6 575.515 129.6 575.793C129.6 576.07 129.504 576.305 129.312 576.497C129.131 576.689 128.907 576.785 128.64 576.785ZM129.344 578.209V586.977H127.888V578.209H129.344ZM134.93 587.121C134.258 587.121 133.655 587.009 133.122 586.785C132.588 586.55 132.167 586.23 131.858 585.825C131.548 585.409 131.378 584.934 131.346 584.401H132.85C132.892 584.838 133.095 585.195 133.458 585.473C133.831 585.75 134.316 585.889 134.914 585.889C135.468 585.889 135.906 585.766 136.226 585.521C136.546 585.275 136.706 584.966 136.706 584.593C136.706 584.209 136.535 583.926 136.194 583.745C135.852 583.553 135.324 583.366 134.61 583.185C133.959 583.014 133.426 582.843 133.01 582.673C132.604 582.491 132.252 582.23 131.954 581.889C131.666 581.537 131.522 581.078 131.522 580.513C131.522 580.065 131.655 579.654 131.922 579.281C132.188 578.907 132.567 578.614 133.058 578.401C133.548 578.177 134.108 578.065 134.738 578.065C135.708 578.065 136.492 578.31 137.09 578.801C137.687 579.291 138.007 579.963 138.05 580.817H136.594C136.562 580.358 136.375 579.99 136.034 579.713C135.703 579.435 135.255 579.297 134.69 579.297C134.167 579.297 133.751 579.409 133.442 579.633C133.132 579.857 132.978 580.15 132.978 580.513C132.978 580.801 133.068 581.041 133.25 581.233C133.442 581.414 133.676 581.563 133.954 581.681C134.242 581.787 134.636 581.91 135.138 582.049C135.767 582.219 136.279 582.39 136.674 582.561C137.068 582.721 137.404 582.966 137.682 583.297C137.97 583.627 138.119 584.059 138.13 584.593C138.13 585.073 137.996 585.505 137.73 585.889C137.463 586.273 137.084 586.577 136.594 586.801C136.114 587.014 135.559 587.121 134.93 587.121ZM148.185 582.257C148.185 582.534 148.169 582.827 148.137 583.137H141.129C141.182 584.001 141.476 584.678 142.009 585.169C142.553 585.649 143.209 585.889 143.977 585.889C144.606 585.889 145.129 585.745 145.545 585.457C145.972 585.158 146.27 584.763 146.441 584.273H148.009C147.774 585.115 147.305 585.803 146.601 586.337C145.897 586.859 145.022 587.121 143.977 587.121C143.145 587.121 142.398 586.934 141.737 586.561C141.086 586.187 140.574 585.659 140.201 584.977C139.828 584.283 139.641 583.483 139.641 582.577C139.641 581.67 139.822 580.875 140.185 580.193C140.548 579.51 141.054 578.987 141.705 578.625C142.366 578.251 143.124 578.065 143.977 578.065C144.809 578.065 145.545 578.246 146.185 578.609C146.825 578.971 147.316 579.473 147.657 580.113C148.009 580.742 148.185 581.457 148.185 582.257ZM146.681 581.953C146.681 581.398 146.558 580.923 146.313 580.529C146.068 580.123 145.732 579.819 145.305 579.617C144.889 579.403 144.425 579.297 143.913 579.297C143.177 579.297 142.548 579.531 142.025 580.001C141.513 580.47 141.22 581.121 141.145 581.953H146.681ZM155.829 579.825C156.117 579.323 156.543 578.907 157.109 578.577C157.685 578.235 158.351 578.065 159.109 578.065C159.887 578.065 160.591 578.251 161.221 578.625C161.861 578.998 162.362 579.526 162.725 580.209C163.087 580.881 163.269 581.665 163.269 582.561C163.269 583.446 163.087 584.235 162.725 584.929C162.362 585.622 161.861 586.161 161.221 586.545C160.591 586.929 159.887 587.121 159.109 587.121C158.362 587.121 157.701 586.955 157.125 586.625C156.559 586.283 156.127 585.862 155.829 585.361V591.137H154.373V578.209H155.829V579.825ZM161.781 582.561C161.781 581.899 161.647 581.323 161.381 580.833C161.114 580.342 160.751 579.969 160.293 579.713C159.845 579.457 159.349 579.329 158.805 579.329C158.271 579.329 157.775 579.462 157.317 579.729C156.869 579.985 156.506 580.363 156.229 580.865C155.962 581.355 155.829 581.926 155.829 582.577C155.829 583.238 155.962 583.819 156.229 584.321C156.506 584.811 156.869 585.19 157.317 585.457C157.775 585.713 158.271 585.841 158.805 585.841C159.349 585.841 159.845 585.713 160.293 585.457C160.751 585.19 161.114 584.811 161.381 584.321C161.647 583.819 161.781 583.233 161.781 582.561ZM166.641 575.137V586.977H165.185V575.137H166.641ZM168.579 582.561C168.579 581.665 168.76 580.881 169.123 580.209C169.485 579.526 169.981 578.998 170.611 578.625C171.251 578.251 171.96 578.065 172.739 578.065C173.507 578.065 174.173 578.23 174.739 578.561C175.304 578.891 175.725 579.307 176.003 579.809V578.209H177.475V586.977H176.003V585.345C175.715 585.857 175.283 586.283 174.707 586.625C174.141 586.955 173.48 587.121 172.723 587.121C171.944 587.121 171.24 586.929 170.611 586.545C169.981 586.161 169.485 585.622 169.123 584.929C168.76 584.235 168.579 583.446 168.579 582.561ZM176.003 582.577C176.003 581.915 175.869 581.339 175.603 580.849C175.336 580.358 174.973 579.985 174.515 579.729C174.067 579.462 173.571 579.329 173.027 579.329C172.483 579.329 171.987 579.457 171.539 579.713C171.091 579.969 170.733 580.342 170.467 580.833C170.2 581.323 170.067 581.899 170.067 582.561C170.067 583.233 170.2 583.819 170.467 584.321C170.733 584.811 171.091 585.19 171.539 585.457C171.987 585.713 172.483 585.841 173.027 585.841C173.571 585.841 174.067 585.713 174.515 585.457C174.973 585.19 175.336 584.811 175.603 584.321C175.869 583.819 176.003 583.238 176.003 582.577ZM181.711 579.409V584.577C181.711 585.003 181.802 585.307 181.983 585.489C182.164 585.659 182.479 585.745 182.927 585.745H183.999V586.977H182.687C181.876 586.977 181.268 586.79 180.863 586.417C180.458 586.043 180.255 585.43 180.255 584.577V579.409H179.119V578.209H180.255V576.001H181.711V578.209H183.999V579.409H181.711ZM189.331 579.409H187.491V586.977H186.035V579.409H184.899V578.209H186.035V577.585C186.035 576.603 186.286 575.889 186.787 575.441C187.299 574.982 188.115 574.753 189.235 574.753V575.969C188.595 575.969 188.142 576.097 187.875 576.353C187.619 576.598 187.491 577.009 187.491 577.585V578.209H189.331V579.409ZM194.853 587.121C194.032 587.121 193.285 586.934 192.613 586.561C191.952 586.187 191.429 585.659 191.045 584.977C190.672 584.283 190.485 583.483 190.485 582.577C190.485 581.681 190.677 580.891 191.061 580.209C191.456 579.515 191.989 578.987 192.661 578.625C193.333 578.251 194.085 578.065 194.917 578.065C195.749 578.065 196.501 578.251 197.173 578.625C197.845 578.987 198.373 579.51 198.757 580.193C199.152 580.875 199.349 581.67 199.349 582.577C199.349 583.483 199.146 584.283 198.741 584.977C198.346 585.659 197.808 586.187 197.125 586.561C196.442 586.934 195.685 587.121 194.853 587.121ZM194.853 585.841C195.376 585.841 195.866 585.718 196.325 585.473C196.784 585.227 197.152 584.859 197.429 584.369C197.717 583.878 197.861 583.281 197.861 582.577C197.861 581.873 197.722 581.275 197.445 580.785C197.168 580.294 196.805 579.931 196.357 579.697C195.909 579.451 195.424 579.329 194.901 579.329C194.368 579.329 193.877 579.451 193.429 579.697C192.992 579.931 192.64 580.294 192.373 580.785C192.106 581.275 191.973 581.873 191.973 582.577C191.973 583.291 192.101 583.894 192.357 584.385C192.624 584.875 192.976 585.243 193.413 585.489C193.85 585.723 194.33 585.841 194.853 585.841ZM202.719 579.633C202.975 579.131 203.338 578.742 203.807 578.465C204.287 578.187 204.869 578.049 205.551 578.049V579.553H205.167C203.535 579.553 202.719 580.438 202.719 582.209V586.977H201.263V578.209H202.719V579.633ZM217.776 578.049C218.459 578.049 219.067 578.193 219.6 578.481C220.133 578.758 220.555 579.179 220.864 579.745C221.173 580.31 221.328 580.998 221.328 581.809V586.977H219.888V582.017C219.888 581.142 219.669 580.475 219.232 580.017C218.805 579.547 218.224 579.313 217.488 579.313C216.731 579.313 216.128 579.558 215.68 580.049C215.232 580.529 215.008 581.227 215.008 582.145V586.977H213.568V582.017C213.568 581.142 213.349 580.475 212.912 580.017C212.485 579.547 211.904 579.313 211.168 579.313C210.411 579.313 209.808 579.558 209.36 580.049C208.912 580.529 208.688 581.227 208.688 582.145V586.977H207.232V578.209H208.688V579.473C208.976 579.014 209.36 578.662 209.84 578.417C210.331 578.171 210.869 578.049 211.456 578.049C212.192 578.049 212.843 578.214 213.408 578.545C213.973 578.875 214.395 579.361 214.672 580.001C214.917 579.382 215.323 578.902 215.888 578.561C216.453 578.219 217.083 578.049 217.776 578.049ZM226.82 587.121C226.148 587.121 225.546 587.009 225.012 586.785C224.479 586.55 224.058 586.23 223.748 585.825C223.439 585.409 223.268 584.934 223.236 584.401H224.74C224.783 584.838 224.986 585.195 225.348 585.473C225.722 585.75 226.207 585.889 226.804 585.889C227.359 585.889 227.796 585.766 228.116 585.521C228.436 585.275 228.596 584.966 228.596 584.593C228.596 584.209 228.426 583.926 228.084 583.745C227.743 583.553 227.215 583.366 226.5 583.185C225.85 583.014 225.316 582.843 224.9 582.673C224.495 582.491 224.143 582.23 223.844 581.889C223.556 581.537 223.412 581.078 223.412 580.513C223.412 580.065 223.546 579.654 223.812 579.281C224.079 578.907 224.458 578.614 224.948 578.401C225.439 578.177 225.999 578.065 226.628 578.065C227.599 578.065 228.383 578.31 228.98 578.801C229.578 579.291 229.898 579.963 229.94 580.817H228.484C228.452 580.358 228.266 579.99 227.924 579.713C227.594 579.435 227.146 579.297 226.58 579.297C226.058 579.297 225.642 579.409 225.332 579.633C225.023 579.857 224.868 580.15 224.868 580.513C224.868 580.801 224.959 581.041 225.14 581.233C225.332 581.414 225.567 581.563 225.844 581.681C226.132 581.787 226.527 581.91 227.028 582.049C227.658 582.219 228.17 582.39 228.564 582.561C228.959 582.721 229.295 582.966 229.572 583.297C229.86 583.627 230.01 584.059 230.02 584.593C230.02 585.073 229.887 585.505 229.62 585.889C229.354 586.273 228.975 586.577 228.484 586.801C228.004 587.014 227.45 587.121 226.82 587.121Z" fill="#73787A"/>
<path d="M78.688 649.985V653.713H82.752V654.913H78.688V658.753H83.232V659.953H77.232V648.785H83.232V649.985H78.688ZM90.0111 659.953L87.9311 656.689L85.9311 659.953H84.4111L87.2431 655.601L84.4111 651.185H86.0591L88.1391 654.433L90.1231 651.185H91.6431L88.8271 655.521L91.6591 659.953H90.0111ZM94.5474 652.801C94.8354 652.3 95.262 651.884 95.8274 651.553C96.4034 651.212 97.07 651.041 97.8274 651.041C98.606 651.041 99.31 651.228 99.9394 651.601C100.579 651.974 101.081 652.502 101.443 653.185C101.806 653.857 101.987 654.641 101.987 655.537C101.987 656.422 101.806 657.212 101.443 657.905C101.081 658.598 100.579 659.137 99.9394 659.521C99.31 659.905 98.606 660.097 97.8274 660.097C97.0807 660.097 96.4194 659.932 95.8434 659.601C95.278 659.26 94.846 658.838 94.5474 658.337V664.113H93.0914V651.185H94.5474V652.801ZM100.499 655.537C100.499 654.876 100.366 654.3 100.099 653.809C99.8327 653.318 99.47 652.945 99.0114 652.689C98.5634 652.433 98.0674 652.305 97.5234 652.305C96.99 652.305 96.494 652.438 96.0354 652.705C95.5874 652.961 95.2247 653.34 94.9474 653.841C94.6807 654.332 94.5474 654.902 94.5474 655.553C94.5474 656.214 94.6807 656.796 94.9474 657.297C95.2247 657.788 95.5874 658.166 96.0354 658.433C96.494 658.689 96.99 658.817 97.5234 658.817C98.0674 658.817 98.5634 658.689 99.0114 658.433C99.47 658.166 99.8327 657.788 100.099 657.297C100.366 656.796 100.499 656.209 100.499 655.537ZM105.36 648.113V659.953H103.904V648.113H105.36ZM111.665 660.097C110.844 660.097 110.097 659.91 109.425 659.537C108.764 659.164 108.241 658.636 107.857 657.953C107.484 657.26 107.297 656.46 107.297 655.553C107.297 654.657 107.489 653.868 107.873 653.185C108.268 652.492 108.801 651.964 109.473 651.601C110.145 651.228 110.897 651.041 111.729 651.041C112.561 651.041 113.313 651.228 113.985 651.601C114.657 651.964 115.185 652.486 115.569 653.169C115.964 653.852 116.161 654.646 116.161 655.553C116.161 656.46 115.959 657.26 115.553 657.953C115.159 658.636 114.62 659.164 113.937 659.537C113.255 659.91 112.497 660.097 111.665 660.097ZM111.665 658.817C112.188 658.817 112.679 658.694 113.137 658.449C113.596 658.204 113.964 657.836 114.241 657.345C114.529 656.854 114.673 656.257 114.673 655.553C114.673 654.849 114.535 654.252 114.257 653.761C113.98 653.27 113.617 652.908 113.169 652.673C112.721 652.428 112.236 652.305 111.713 652.305C111.18 652.305 110.689 652.428 110.241 652.673C109.804 652.908 109.452 653.27 109.185 653.761C108.919 654.252 108.785 654.849 108.785 655.553C108.785 656.268 108.913 656.87 109.169 657.361C109.436 657.852 109.788 658.22 110.225 658.465C110.663 658.7 111.143 658.817 111.665 658.817ZM119.532 652.609C119.788 652.108 120.15 651.718 120.62 651.441C121.1 651.164 121.681 651.025 122.364 651.025V652.529H121.98C120.348 652.529 119.532 653.414 119.532 655.185V659.953H118.076V651.185H119.532V652.609ZM132.045 655.233C132.045 655.51 132.029 655.804 131.997 656.113H124.989C125.042 656.977 125.335 657.654 125.869 658.145C126.413 658.625 127.069 658.865 127.837 658.865C128.466 658.865 128.989 658.721 129.405 658.433C129.831 658.134 130.13 657.74 130.301 657.249H131.869C131.634 658.092 131.165 658.78 130.461 659.313C129.757 659.836 128.882 660.097 127.837 660.097C127.005 660.097 126.258 659.91 125.597 659.537C124.946 659.164 124.434 658.636 124.061 657.953C123.687 657.26 123.501 656.46 123.501 655.553C123.501 654.646 123.682 653.852 124.045 653.169C124.407 652.486 124.914 651.964 125.565 651.601C126.226 651.228 126.983 651.041 127.837 651.041C128.669 651.041 129.405 651.222 130.045 651.585C130.685 651.948 131.175 652.449 131.517 653.089C131.869 653.718 132.045 654.433 132.045 655.233ZM130.541 654.929C130.541 654.374 130.418 653.9 130.173 653.505C129.927 653.1 129.591 652.796 129.165 652.593C128.749 652.38 128.285 652.273 127.773 652.273C127.037 652.273 126.407 652.508 125.885 652.977C125.373 653.446 125.079 654.097 125.005 654.929H130.541Z" fill="#FFA500"/>
<path d="M140.75 653.953H151.25" stroke="#FFA500" stroke-linecap="round" stroke-linejoin="round"/>
<path d="M146 648.703L151.25 653.953L146 659.203" stroke="#FFA500" stroke-linecap="round" stroke-linejoin="round"/>
</g>
<defs>
<filter id="filter0_d_58_149" x="18" y="19" width="291.328" height="340.977" filterUnits="userSpaceOnUse" color-interpolation-filters="sRGB">
<feFlood flood-opacity="0" result="BackgroundImageFix"/>
<feColorMatrix in="SourceAlpha" type="matrix" values="0 0 0 0 0 0 0 0 0 0 0 0 0 0 0 0 0 0 127 0" result="hardAlpha"/>
<feOffset dy="1"/>
<feGaussianBlur stdDeviation="1"/>
<feComposite in2="hardAlpha" operator="out"/>
<feColorMatrix type="matrix" values="0 0 0 0 0 0 0 0 0 0 0 0 0 0 0 0 0 0 0.04 0"/>
<feBlend mode="normal" in2="BackgroundImageFix" result="effect1_dropShadow_58_149"/>
<feBlend mode="normal" in="SourceGraphic" in2="effect1_dropShadow_58_149" result="shape"/>
</filter>
<filter id="filter1_d_58_149" x="18" y="375.977" width="291.328" height="340.977" filterUnits="userSpaceOnUse" color-interpolation-filters="sRGB">
<feFlood flood-opacity="0" result="BackgroundImageFix"/>
<feColorMatrix in="SourceAlpha" type="matrix" values="0 0 0 0 0 0 0 0 0 0 0 0 0 0 0 0 0 0 127 0" result="hardAlpha"/>
<feOffset dy="1"/>
<feGaussianBlur stdDeviation="1"/>
<feComposite in2="hardAlpha" operator="out"/>
<feColorMatrix type="matrix" values="0 0 0 0 0 0 0 0 0 0 0 0 0 0 0 0 0 0 0.04 0"/>
<feBlend mode="normal" in2="BackgroundImageFix" result="effect1_dropShadow_58_149"/>
<feBlend mode="normal" in="SourceGraphic" in2="effect1_dropShadow_58_149" result="shape"/>
</filter>
</defs>
</svg>
