<svg width="452" height="68" viewBox="0 0 452 68" fill="none" xmlns="http://www.w3.org/2000/svg">
<rect x="0.5" y="0.5" width="451" height="67" rx="4.5" stroke="#8A38F5" stroke-dasharray="10 5"/>
<path d="M10 34C10 20.7452 20.7452 10 34 10C47.2548 10 58 20.7452 58 34C58 47.2548 47.2548 58 34 58C20.7452 58 10 47.2548 10 34Z" fill="#F0F4F5"/>
<path d="M35.5 29C35.7761 29 36 28.7761 36 28.5C36 28.2239 35.7761 28 35.5 28C35.2239 28 35 28.2239 35 28.5C35 28.7761 35.2239 29 35.5 29Z" fill="#FFA500" stroke="#FFA500" stroke-width="2" stroke-linecap="round" stroke-linejoin="round"/>
<path d="M39.5 33C39.7761 33 40 32.7761 40 32.5C40 32.2239 39.7761 32 39.5 32C39.2239 32 39 32.2239 39 32.5C39 32.7761 39.2239 33 39.5 33Z" fill="#FFA500" stroke="#FFA500" stroke-width="2" stroke-linecap="round" stroke-linejoin="round"/>
<path d="M30.5 30C30.7761 30 31 29.7761 31 29.5C31 29.2239 30.7761 29 30.5 29C30.2239 29 30 29.2239 30 29.5C30 29.7761 30.2239 30 30.5 30Z" fill="#FFA500" stroke="#FFA500" stroke-width="2" stroke-linecap="round" stroke-linejoin="round"/>
<path d="M28.5 35C28.7761 35 29 34.7761 29 34.5C29 34.2239 28.7761 34 28.5 34C28.2239 34 28 34.2239 28 34.5C28 34.7761 28.2239 35 28.5 35Z" fill="#FFA500" stroke="#FFA500" stroke-width="2" stroke-linecap="round" stroke-linejoin="round"/>
<path d="M34 24C28.5 24 24 28.5 24 34C24 39.5 28.5 44 34 44C34.926 44 35.648 43.254 35.648 42.312C35.648 41.875 35.468 41.477 35.211 41.187C34.921 40.898 34.773 40.535 34.773 40.062C34.7692 39.8419 34.8098 39.6233 34.8922 39.4192C34.9747 39.2151 35.0975 39.0298 35.2531 38.8741C35.4088 38.7185 35.5941 38.5957 35.7982 38.5132C36.0023 38.4308 36.2209 38.3902 36.441 38.394H38.437C41.488 38.394 43.992 35.891 43.992 32.84C43.965 28.012 39.461 24 34 24Z" stroke="#FFA500" stroke-width="2" stroke-linecap="round" stroke-linejoin="round"/>
<path d="M74 34C74 20.7452 84.7452 10 98 10C111.255 10 122 20.7452 122 34C122 47.2548 111.255 58 98 58C84.7452 58 74 47.2548 74 34Z" fill="#F0F4F5"/>
<path d="M98 24L89 27.5V34C89 37.5 92.5 43 97 44C101.5 43 105 37.5 105 34V27.5L97 24H98Z" stroke="#FFA500" stroke-width="2" stroke-linecap="round" stroke-linejoin="round"/>
<path d="M138 34C138 20.7452 148.745 10 162 10C175.255 10 186 20.7452 186 34C186 47.2548 175.255 58 162 58C148.745 58 138 47.2548 138 34Z" fill="#F0F4F5"/>
<path d="M159.937 37.5002C159.848 37.1542 159.667 36.8384 159.415 36.5856C159.162 36.3329 158.846 36.1525 158.5 36.0632L152.365 34.4812C152.26 34.4515 152.168 34.3885 152.103 34.3017C152.037 34.2149 152.001 34.1091 152.001 34.0002C152.001 33.8914 152.037 33.7856 152.103 33.6988C152.168 33.612 152.26 33.549 152.365 33.5192L158.5 31.9362C158.846 31.8471 159.162 31.6668 159.414 31.4143C159.667 31.1618 159.848 30.8461 159.937 30.5002L161.519 24.3652C161.548 24.2602 161.611 24.1676 161.698 24.1016C161.785 24.0357 161.891 24 162 24C162.11 24 162.216 24.0357 162.303 24.1016C162.39 24.1676 162.453 24.2602 162.482 24.3652L164.063 30.5002C164.152 30.8463 164.333 31.1621 164.585 31.4149C164.838 31.6676 165.154 31.848 165.5 31.9372L171.635 33.5182C171.74 33.5473 171.833 33.6103 171.9 33.6973C171.966 33.7844 172.002 33.8908 172.002 34.0002C172.002 34.1097 171.966 34.2161 171.9 34.3032C171.833 34.3902 171.74 34.4531 171.635 34.4822L165.5 36.0632C165.154 36.1525 164.838 36.3329 164.585 36.5856C164.333 36.8384 164.152 37.1542 164.063 37.5002L162.481 43.6353C162.452 43.7403 162.389 43.8329 162.302 43.8989C162.215 43.9648 162.109 44.0005 161.999 44.0005C161.89 44.0005 161.784 43.9648 161.697 43.8989C161.61 43.8329 161.547 43.7403 161.518 43.6353L159.937 37.5002Z" stroke="#FFA500" stroke-width="2" stroke-linecap="round" stroke-linejoin="round"/>
<path d="M170 25V29" stroke="#FFA500" stroke-width="2" stroke-linecap="round" stroke-linejoin="round"/>
<path d="M172 27H168" stroke="#FFA500" stroke-width="2" stroke-linecap="round" stroke-linejoin="round"/>
<path d="M154 39V41" stroke="#FFA500" stroke-width="2" stroke-linecap="round" stroke-linejoin="round"/>
<path d="M155 40H153" stroke="#FFA500" stroke-width="2" stroke-linecap="round" stroke-linejoin="round"/>
<path d="M202 34C202 20.7452 212.745 10 226 10C239.255 10 250 20.7452 250 34C250 47.2548 239.255 58 226 58C212.745 58 202 47.2548 202 34Z" fill="#F0F4F5"/>
<path d="M220.75 34H231.25" stroke="#FFA500" stroke-width="1.5" stroke-linecap="round" stroke-linejoin="round"/>
<path d="M226 28.75L231.25 34L226 39.25" stroke="#FFA500" stroke-width="1.5" stroke-linecap="round" stroke-linejoin="round"/>
<path d="M266 34C266 20.7452 276.745 10 290 10C303.255 10 314 20.7452 314 34C314 47.2548 303.255 58 290 58C276.745 58 266 47.2548 266 34Z" fill="#F0F4F5"/>
<path d="M295.25 34H284.75" stroke="#FFA500" stroke-width="1.5" stroke-linecap="round" stroke-linejoin="round"/>
<path d="M290 28.75L284.75 34L290 39.25" stroke="#FFA500" stroke-width="1.5" stroke-linecap="round" stroke-linejoin="round"/>
<path d="M330 34C330 20.7452 340.745 10 354 10C367.255 10 378 20.7452 378 34C378 47.2548 367.255 58 354 58C340.745 58 330 47.2548 330 34Z" fill="#F0F4F5"/>
<path d="M346 38.004V39C346 39.7956 346.316 40.5587 346.879 41.1213C347.441 41.6839 348.204 42 349 42H359C359.796 42 360.559 41.6839 361.121 41.1213C361.684 40.5587 362 39.7956 362 39V38M354 26.5V37.5M354 37.5L357.5 34M354 37.5L350.5 34" stroke="#FFA500" stroke-width="1.5" stroke-linecap="round" stroke-linejoin="round"/>
<path d="M394 34C394 20.7452 404.745 10 418 10C431.255 10 442 20.7452 442 34C442 47.2548 431.255 58 418 58C404.745 58 394 47.2548 394 34Z" fill="#F0F4F5"/>
<g clip-path="url(#clip0_58_256)">
<path d="M424.5 26.3751H411.5C411.205 26.3721 410.921 26.4862 410.71 26.6924C410.499 26.8986 410.379 27.1801 410.375 27.4751V40.5276C410.379 40.8221 410.5 41.1029 410.711 41.3086C410.922 41.5143 411.205 41.6281 411.5 41.6251H424.5C424.795 41.6274 425.079 41.5129 425.29 41.3065C425.5 41.1002 425.621 40.8188 425.625 40.5238V27.4713C425.62 27.1772 425.499 26.8971 425.288 26.6918C425.077 26.4865 424.794 26.3727 424.5 26.3751Z" fill="#0076B2"/>
<path d="M412.633 32.0908H414.896V39.3746H412.633V32.0908ZM413.765 28.4658C414.025 28.4658 414.279 28.5428 414.494 28.6871C414.71 28.8314 414.879 29.0364 414.978 29.2763C415.077 29.5162 415.103 29.7802 415.052 30.0348C415.002 30.2895 414.876 30.5233 414.693 30.7068C414.509 30.8903 414.275 31.0153 414.02 31.0658C413.766 31.1163 413.502 31.0901 413.262 30.9906C413.022 30.891 412.817 30.7226 412.673 30.5066C412.529 30.2906 412.452 30.0367 412.453 29.7771C412.453 29.4292 412.591 29.0957 412.838 28.8498C413.084 28.6039 413.417 28.4658 413.765 28.4658ZM416.316 32.0908H418.486V33.0908H418.516C418.819 32.5183 419.556 31.9146 420.658 31.9146C422.95 31.9096 423.375 33.4183 423.375 35.3746V39.3746H421.111V35.8308C421.111 34.9871 421.096 33.9008 419.935 33.9008C418.774 33.9008 418.576 34.8208 418.576 35.7758V39.3746H416.316V32.0908Z" fill="white"/>
</g>
<defs>
<clipPath id="clip0_58_256">
<rect width="16" height="16" fill="white" transform="translate(410 26)"/>
</clipPath>
</defs>
</svg>
