<svg width="188" height="32" viewBox="0 0 188 32" fill="none" xmlns="http://www.w3.org/2000/svg">
<rect width="188" height="32" fill="#E5F2FF"/>
<g clip-path="url(#clip0_77_5)">
<path d="M22.5 8.37506H9.5C9.20504 8.37206 8.92093 8.48619 8.71002 8.69241C8.49911 8.89863 8.37863 9.1801 8.375 9.47506V22.5276C8.37928 22.8221 8.50006 23.1029 8.7109 23.3086C8.92173 23.5143 9.20547 23.6281 9.5 23.6251H22.5C22.795 23.6274 23.0789 23.5129 23.2897 23.3065C23.5005 23.1002 23.621 22.8188 23.625 22.5238V9.47131C23.6197 9.17722 23.4986 8.89709 23.288 8.69181C23.0773 8.48654 22.7941 8.37271 22.5 8.37506Z" fill="#0076B2"/>
<path d="M10.6326 14.0908H12.8964V21.3746H10.6326V14.0908ZM11.7651 10.4658C12.0248 10.4658 12.2786 10.5428 12.4945 10.6871C12.7103 10.8314 12.8785 11.0364 12.9778 11.2763C13.0772 11.5162 13.1031 11.7802 13.0523 12.0348C13.0016 12.2895 12.8765 12.5233 12.6928 12.7068C12.5091 12.8903 12.2751 13.0153 12.0204 13.0658C11.7657 13.1163 11.5018 13.0901 11.262 12.9906C11.0222 12.891 10.8173 12.7226 10.6732 12.5066C10.5292 12.2906 10.4524 12.0367 10.4526 11.7771C10.453 11.4292 10.5914 11.0957 10.8375 10.8498C11.0836 10.6039 11.4173 10.4658 11.7651 10.4658ZM14.3164 14.0908H16.4864V15.0908H16.5164C16.8189 14.5183 17.5564 13.9146 18.6576 13.9146C20.9501 13.9096 21.3751 15.4183 21.3751 17.3746V21.3746H19.1114V17.8308C19.1114 16.9871 19.0964 15.9008 17.9351 15.9008C16.7739 15.9008 16.5764 16.8208 16.5764 17.7758V21.3746H14.3164V14.0908Z" fill="white"/>
</g>
<path d="M34.444 15.812C34.444 13.316 36.352 11.552 38.704 11.552C40.444 11.552 41.944 12.428 42.58 14.06H40.936C40.492 13.172 39.7 12.752 38.704 12.752C37.048 12.752 35.848 13.928 35.848 15.812C35.848 17.696 37.048 18.884 38.704 18.884C39.7 18.884 40.492 18.464 40.936 17.576H42.58C41.944 19.208 40.444 20.072 38.704 20.072C36.352 20.072 34.444 18.32 34.444 15.812ZM50.4813 16.688C50.4813 18.764 48.9453 20.108 47.0493 20.108C45.1653 20.108 43.7373 18.764 43.7373 16.688C43.7373 14.612 45.2253 13.28 47.1093 13.28C48.9933 13.28 50.4813 14.612 50.4813 16.688ZM45.1293 16.688C45.1293 18.188 46.0173 18.92 47.0493 18.92C48.0693 18.92 49.0773 18.188 49.0773 16.688C49.0773 15.188 48.1053 14.468 47.0853 14.468C46.0533 14.468 45.1293 15.188 45.1293 16.688ZM56.5256 20V16.304C56.5256 15.092 55.8656 14.468 54.8696 14.468C53.8616 14.468 53.2016 15.092 53.2016 16.304V20H51.8336V13.388H53.2016V14.144C53.6456 13.604 54.3776 13.28 55.1696 13.28C56.7176 13.28 57.8816 14.252 57.8816 16.1V20H56.5256ZM64.3186 20V16.304C64.3186 15.092 63.6586 14.468 62.6626 14.468C61.6546 14.468 60.9946 15.092 60.9946 16.304V20H59.6266V13.388H60.9946V14.144C61.4386 13.604 62.1706 13.28 62.9626 13.28C64.5106 13.28 65.6746 14.252 65.6746 16.1V20H64.3186ZM70.2035 14.432C69.2795 14.432 68.5355 15.056 68.3915 16.1H72.0515C72.0275 15.08 71.2235 14.432 70.2035 14.432ZM73.2995 18.032C72.9275 19.184 71.8835 20.108 70.2635 20.108C68.3675 20.108 66.9635 18.764 66.9635 16.688C66.9635 14.612 68.3075 13.28 70.2635 13.28C72.1475 13.28 73.4795 14.588 73.4795 16.532C73.4795 16.76 73.4675 16.976 73.4315 17.204H68.3795C68.4755 18.296 69.2555 18.956 70.2635 18.956C71.1035 18.956 71.5715 18.548 71.8235 18.032H73.2995ZM74.3698 16.688C74.3698 14.624 75.7138 13.28 77.6098 13.28C79.2298 13.28 80.2858 14.084 80.6578 15.476H79.1818C78.9538 14.84 78.4258 14.432 77.6098 14.432C76.5058 14.432 75.7738 15.248 75.7738 16.688C75.7738 18.14 76.5058 18.956 77.6098 18.956C78.4258 18.956 78.9298 18.596 79.1818 17.912H80.6578C80.2858 19.208 79.2298 20.108 77.6098 20.108C75.7138 20.108 74.3698 18.764 74.3698 16.688ZM82.2371 18.164V14.504H81.4571V13.388H82.2371V11.744H83.6171V13.388H85.2251V14.504H83.6171V18.164C83.6171 18.656 83.8091 18.86 84.3851 18.86H85.2251V20H84.1451C82.9691 20 82.2371 19.508 82.2371 18.164ZM98.9751 20V16.304C98.9751 15.092 98.3151 14.468 97.3191 14.468C96.3111 14.468 95.6511 15.092 95.6511 16.304V20H94.2951V16.304C94.2951 15.092 93.6351 14.468 92.6391 14.468C91.6311 14.468 90.9711 15.092 90.9711 16.304V20H89.6031V13.388H90.9711V14.144C91.4151 13.604 92.1351 13.28 92.9271 13.28C93.9711 13.28 94.8471 13.724 95.3031 14.588C95.7111 13.784 96.6471 13.28 97.6071 13.28C99.1551 13.28 100.331 14.252 100.331 16.1V20H98.9751ZM104.856 14.432C103.932 14.432 103.188 15.056 103.044 16.1H106.704C106.68 15.08 105.876 14.432 104.856 14.432ZM107.952 18.032C107.58 19.184 106.536 20.108 104.916 20.108C103.02 20.108 101.616 18.764 101.616 16.688C101.616 14.612 102.96 13.28 104.916 13.28C106.8 13.28 108.132 14.588 108.132 16.532C108.132 16.76 108.12 16.976 108.084 17.204H103.032C103.128 18.296 103.908 18.956 104.916 18.956C105.756 18.956 106.224 18.548 106.476 18.032H107.952ZM118.895 16.688C118.895 18.764 117.359 20.108 115.463 20.108C113.579 20.108 112.151 18.764 112.151 16.688C112.151 14.612 113.639 13.28 115.523 13.28C117.407 13.28 118.895 14.612 118.895 16.688ZM113.543 16.688C113.543 18.188 114.431 18.92 115.463 18.92C116.483 18.92 117.491 18.188 117.491 16.688C117.491 15.188 116.519 14.468 115.499 14.468C114.467 14.468 113.543 15.188 113.543 16.688ZM124.94 20V16.304C124.94 15.092 124.28 14.468 123.284 14.468C122.276 14.468 121.616 15.092 121.616 16.304V20H120.248V13.388H121.616V14.144C122.06 13.604 122.792 13.28 123.584 13.28C125.132 13.28 126.296 14.252 126.296 16.1V20H124.94ZM131.158 11.66H132.526V18.896H135.346V20H131.158V11.66ZM136.49 20V13.388H137.858V20H136.49ZM137.186 12.512C136.694 12.512 136.31 12.128 136.31 11.636C136.31 11.144 136.694 10.76 137.186 10.76C137.666 10.76 138.05 11.144 138.05 11.636C138.05 12.128 137.666 12.512 137.186 12.512ZM144.346 20V16.304C144.346 15.092 143.686 14.468 142.69 14.468C141.682 14.468 141.022 15.092 141.022 16.304V20H139.654V13.388H141.022V14.144C141.466 13.604 142.198 13.28 142.99 13.28C144.538 13.28 145.702 14.252 145.702 16.1V20H144.346ZM147.447 20V11.12H148.815V16.28L151.215 13.388H153.111L150.063 16.7L153.111 20H151.263L148.815 17.156V20H147.447ZM156.875 14.432C155.951 14.432 155.207 15.056 155.063 16.1H158.723C158.699 15.08 157.895 14.432 156.875 14.432ZM159.971 18.032C159.599 19.184 158.555 20.108 156.935 20.108C155.039 20.108 153.635 18.764 153.635 16.688C153.635 14.612 154.979 13.28 156.935 13.28C158.819 13.28 160.151 14.588 160.151 16.532C160.151 16.76 160.139 16.976 160.103 17.204H155.051C155.147 18.296 155.927 18.956 156.935 18.956C157.775 18.956 158.243 18.548 158.495 18.032H159.971ZM161.042 16.664C161.042 14.624 162.422 13.28 164.174 13.28C165.038 13.28 165.95 13.688 166.454 14.312V11.12H167.834V20H166.454V19.004C166.034 19.604 165.242 20.108 164.162 20.108C162.422 20.108 161.042 18.704 161.042 16.664ZM166.454 16.688C166.454 15.272 165.482 14.468 164.45 14.468C163.43 14.468 162.446 15.236 162.446 16.664C162.446 18.092 163.43 18.92 164.45 18.92C165.482 18.92 166.454 18.116 166.454 16.688ZM169.63 20V13.388H170.998V20H169.63ZM170.326 12.512C169.834 12.512 169.45 12.128 169.45 11.636C169.45 11.144 169.834 10.76 170.326 10.76C170.806 10.76 171.19 11.144 171.19 11.636C171.19 12.128 170.806 12.512 170.326 12.512ZM177.487 20V16.304C177.487 15.092 176.827 14.468 175.831 14.468C174.823 14.468 174.163 15.092 174.163 16.304V20H172.795V13.388H174.163V14.144C174.607 13.604 175.339 13.28 176.131 13.28C177.679 13.28 178.843 14.252 178.843 16.1V20H177.487Z" fill="#383B3C"/>
<defs>
<clipPath id="clip0_77_5">
<rect width="16" height="16" fill="white" transform="translate(8 8)"/>
</clipPath>
</defs>
</svg>
